<svg width="18" height="17" viewBox="0 0 18 17" fill="none" xmlns="http://www.w3.org/2000/svg">
<path d="M9 0C10.8638 0 12.43 1.27477 12.874 3H13C15.7614 3 18 5.23858 18 8V12C18 14.7614 15.7614 17 13 17H5C2.23858 17 0 14.7614 0 12V8C0 5.23858 2.23858 3 5 3H5.12598C5.57002 1.27477 7.13616 0 9 0ZM9 7C7.34315 7 6 8.34315 6 10C6 11.6569 7.34315 13 9 13C10.6569 13 12 11.6569 12 10C12 8.34315 10.6569 7 9 7ZM9 2.5C8.44771 2.5 8 2.94772 8 3.5C8 4.05228 8.44771 4.5 9 4.5C9.55229 4.5 10 4.05228 10 3.5C10 2.94772 9.55229 2.5 9 2.5Z" fill="white"/>
</svg>
