<svg width="16" height="16" viewBox="0 0 16 16" fill="none" xmlns="http://www.w3.org/2000/svg">
<path d="M8.00001 15.1667C4.04668 15.1667 0.833344 11.9534 0.833344 8.00004C0.833344 4.04671 4.04668 0.833374 8.00001 0.833374C11.9533 0.833374 15.1667 4.04671 15.1667 8.00004C15.1667 11.9534 11.9533 15.1667 8.00001 15.1667ZM8.00001 1.83337C4.60001 1.83337 1.83334 4.60004 1.83334 8.00004C1.83334 11.4 4.60001 14.1667 8.00001 14.1667C11.4 14.1667 14.1667 11.4 14.1667 8.00004C14.1667 4.60004 11.4 1.83337 8.00001 1.83337Z" fill="#646575"/>
<path d="M10.4733 10.62C10.3867 10.62 10.3 10.6 10.22 10.5467L8.15334 9.31338C7.64001 9.00671 7.26001 8.33338 7.26001 7.74005V5.00671C7.26001 4.73338 7.48668 4.50671 7.76001 4.50671C8.03334 4.50671 8.26001 4.73338 8.26001 5.00671V7.74005C8.26001 7.98005 8.46001 8.33338 8.66668 8.45338L10.7333 9.68671C10.9733 9.82671 11.0467 10.1334 10.9067 10.3734C10.8067 10.5334 10.64 10.62 10.4733 10.62Z" fill="#646575"/>
</svg>
