<svg width="16" height="16" viewBox="0 0 16 16" fill="none" xmlns="http://www.w3.org/2000/svg">
<path d="M6.11332 10.3867C5.98666 10.3867 5.85999 10.34 5.75999 10.24C5.56666 10.0467 5.56666 9.72666 5.75999 9.53332L9.53332 5.75999C9.72666 5.56666 10.0467 5.56666 10.24 5.75999C10.4333 5.95332 10.4333 6.27332 10.24 6.46666L6.46666 10.24C6.37332 10.34 6.23999 10.3867 6.11332 10.3867Z" fill="#F17D7D"/>
<path d="M9.88666 10.3867C9.75999 10.3867 9.63332 10.34 9.53332 10.24L5.75999 6.46666C5.56666 6.27332 5.56666 5.95332 5.75999 5.75999C5.95332 5.56666 6.27332 5.56666 6.46666 5.75999L10.24 9.53332C10.4333 9.72666 10.4333 10.0467 10.24 10.24C10.14 10.34 10.0133 10.3867 9.88666 10.3867Z" fill="#F17D7D"/>
<path d="M9.99998 15.1667H5.99998C2.37998 15.1667 0.833313 13.62 0.833313 10V6.00004C0.833313 2.38004 2.37998 0.833374 5.99998 0.833374H9.99998C13.62 0.833374 15.1666 2.38004 15.1666 6.00004V10C15.1666 13.62 13.62 15.1667 9.99998 15.1667ZM5.99998 1.83337C2.92665 1.83337 1.83331 2.92671 1.83331 6.00004V10C1.83331 13.0734 2.92665 14.1667 5.99998 14.1667H9.99998C13.0733 14.1667 14.1666 13.0734 14.1666 10V6.00004C14.1666 2.92671 13.0733 1.83337 9.99998 1.83337H5.99998Z" fill="#F17D7D"/>
</svg>
