<svg width="11" height="10" viewBox="0 0 11 10" fill="none" xmlns="http://www.w3.org/2000/svg">
<path d="M10.1 6.96L6.89996 1.2C6.46996 0.425 5.87496 0 5.21996 0C4.56496 0 3.96996 0.425 3.53996 1.2L0.33996 6.96C-0.0650405 7.695 -0.11004 8.4 0.21496 8.955C0.539959 9.51 1.17996 9.815 2.01996 9.815H8.41996C9.25996 9.815 9.89996 9.51 10.225 8.955C10.55 8.4 10.505 7.69 10.1 6.96ZM4.84496 3.5C4.84496 3.295 5.01496 3.125 5.21996 3.125C5.42496 3.125 5.59496 3.295 5.59496 3.5V6C5.59496 6.205 5.42496 6.375 5.21996 6.375C5.01496 6.375 4.84496 6.205 4.84496 6V3.5ZM5.57496 7.855C5.54996 7.875 5.52496 7.895 5.49996 7.915C5.46996 7.935 5.43996 7.95 5.40996 7.96C5.37996 7.975 5.34996 7.985 5.31496 7.99C5.28496 7.995 5.24996 8 5.21996 8C5.18996 8 5.15496 7.995 5.11996 7.99C5.08996 7.985 5.05996 7.975 5.02996 7.96C4.99996 7.95 4.96996 7.935 4.93996 7.915C4.91496 7.895 4.88996 7.875 4.86496 7.855C4.77496 7.76 4.71996 7.63 4.71996 7.5C4.71996 7.37 4.77496 7.24 4.86496 7.145C4.88996 7.125 4.91496 7.105 4.93996 7.085C4.96996 7.065 4.99996 7.05 5.02996 7.04C5.05996 7.025 5.08996 7.015 5.11996 7.01C5.18496 6.995 5.25496 6.995 5.31496 7.01C5.34996 7.015 5.37996 7.025 5.40996 7.04C5.43996 7.05 5.46996 7.065 5.49996 7.085C5.52496 7.105 5.54996 7.125 5.57496 7.145C5.66496 7.24 5.71996 7.37 5.71996 7.5C5.71996 7.63 5.66496 7.76 5.57496 7.855Z" fill="#FB2727"/>
</svg>
