<svg width="29" height="29" viewBox="0 0 29 29" fill="none" xmlns="http://www.w3.org/2000/svg">
<path d="M21.7086 14.0024L21.6126 13.8744L21.5806 13.8104V13.6824L21.5166 13.6184H21.2926L21.1646 13.4904L21.0366 13.4584L21.0686 13.4264L21.2286 13.3944L21.1646 13.2344L21.2926 13.1384L21.4526 13.1064L21.3886 12.8824L21.3246 12.7864L21.1326 12.8504H20.9726L20.8126 13.0424L20.6846 13.1704L20.6526 13.2984L20.4926 13.3944L20.3646 13.6824L20.5886 13.8104L20.6206 13.9384C20.7486 14.0344 20.8766 14.1304 21.0366 14.2264L21.1646 14.3544L21.2606 14.3224L21.3566 14.3544L21.2286 14.4184V14.5784V14.6744L21.1646 14.7704L21.1966 14.8984L21.2926 15.0264L21.4846 14.9944L21.6126 15.0584L21.8686 14.9944L22.1246 14.8344V14.7704L22.0286 14.6424L21.9646 14.3864H21.8686V14.2264L21.7726 14.2584L21.7086 14.0024L21.9006 14.0344L22.0286 13.9064L21.9006 13.8424L21.8046 13.7144L21.6766 13.8424L21.7086 14.0024ZM9.22855 0.946432C9.16455 0.978432 9.10055 0.978432 9.06855 1.01043L8.94055 1.13843L9.06855 1.04243L9.22855 0.946432ZM8.87655 1.10643C8.84455 1.10643 8.78055 1.13843 8.74855 1.17043C8.71655 1.17043 8.65255 1.23443 8.55655 1.26643L8.46055 1.33043C8.62055 1.26643 8.74855 1.17043 8.87655 1.10643ZM28.7806 14.5784C28.7486 14.4504 28.7166 14.2904 28.6846 14.1624L28.6206 14.0344C28.6206 14.1944 28.5886 14.3864 28.5566 14.5144L28.5246 14.5784L28.4926 14.6744V14.3864L28.4286 14.2584L28.3326 14.1304V14.0344V14.0664L28.2046 14.0024L28.1726 13.9704L28.1406 13.8744L28.1086 13.8104L28.0446 13.7464L27.9806 13.8744L28.0126 13.9384V14.0664L27.9806 14.0984V14.1624L27.9486 14.1944L27.9166 14.2264V14.3224L27.8846 14.3864L27.7886 14.5784L27.8206 14.7064L27.7886 14.8984L27.6606 15.2184L27.6286 15.6664L27.5646 15.8904L27.4686 16.1464C27.4686 16.1784 27.4686 16.2104 27.4686 16.2424C27.4366 16.3704 27.3726 16.4344 27.3406 16.5624L27.2766 16.6264L27.2446 16.8184L27.3086 17.0424L27.3406 17.2024L27.3086 17.4584L27.3406 17.8104L27.2766 17.9064L27.2126 18.0984L27.2446 18.1304L27.1166 18.2904L27.0846 18.4504L27.0206 18.5784L26.8926 18.4824C26.8606 18.3544 26.7966 18.2264 26.7646 18.0664L26.7006 18.0024L26.6686 17.9064L26.6046 17.6824L26.5726 17.5544L26.4126 17.3944C26.3486 17.2024 26.2846 16.9784 26.2206 16.8184L26.1566 16.5624L26.0926 16.4024L25.9006 16.6904L25.7726 16.7544L25.5166 16.6264L25.5806 16.4984L25.5166 16.4344L25.2926 16.3704L25.1646 16.4024L25.0686 16.2744L24.9086 16.1784L24.6206 16.4024C24.4606 16.5304 24.2686 16.5944 24.1086 16.7224L23.7566 16.8504L23.6286 16.9464L23.4366 17.0104L23.3086 16.7864H23.2126L23.0526 16.8824L22.8926 17.0424L22.6366 17.0744L22.4126 16.9784H22.2206L22.0606 16.8184L21.8686 16.5944L21.7726 16.6904L21.6446 16.6584L21.5806 16.7864L21.4526 16.8184L21.5166 16.9144V16.9464C21.5806 17.0744 21.6446 17.1384 21.7086 17.2664L21.8366 17.2984L21.9006 17.3624L22.0286 17.4264L22.0606 17.5224V17.5864L22.0926 17.6504L22.1566 17.6824L22.1886 17.7464L22.2206 17.7784L22.1886 17.6504L22.2206 17.5224L22.2846 17.4584L22.3486 17.5224L22.3806 17.6504L22.3486 17.7784L22.4126 17.8424L22.4446 17.8104L22.4766 17.8744L22.6046 17.7784C22.7006 17.7464 22.7966 17.7144 22.8926 17.6824C23.0206 17.4904 23.1166 17.2984 23.2126 17.1064L23.2446 17.0104H23.2766V17.1064L23.2446 17.1704L23.3086 17.3304L23.4366 17.4584L23.5646 17.4904L23.6926 17.4584C23.7566 17.5224 23.8206 17.5544 23.8526 17.5864H23.9166C23.9166 17.6184 23.9166 17.6184 23.9166 17.6504C23.8846 17.7464 23.8526 17.7784 23.8526 17.8744L23.7886 18.0024L23.7246 18.1624L23.6286 18.1944L23.5966 18.2584L23.5646 18.3864L23.5966 18.5144L23.5646 18.5464C23.5326 18.5464 23.5006 18.5784 23.4686 18.5784L23.3406 18.7064V18.8344L23.3726 18.8024L23.3086 18.8344L23.2446 18.9304V19.0264L23.1486 19.1224L23.0206 19.1544L22.8926 19.2824L22.7966 19.3464L22.6686 19.4744L22.6366 19.6024V19.6984L22.4446 19.8264L22.1246 20.0504L21.9646 20.2424L21.8686 20.2744H21.8046L21.6766 20.4024L21.5486 20.4984L21.3886 20.5624L21.2926 20.6584L21.2286 20.7224L21.1646 20.7544L21.1326 20.8184L21.0046 20.8504L20.9406 20.9144L20.8126 20.9464V20.7224V20.5944L20.7486 20.5624L20.7166 20.4344L20.6526 20.3704L20.7166 20.3384L20.6846 20.2424L20.7166 20.1784L20.6846 20.0824L20.6526 19.9864L20.5886 19.9224L20.5566 19.8264H20.4606L20.3326 19.6984L20.2366 19.5064L20.0766 19.3784H19.9486L19.7886 19.2184L19.7566 19.0904V18.9624L19.6286 18.7384L19.5006 18.6744L19.3726 18.6424L19.2766 18.5144V18.4504L19.1806 18.3224L19.1166 18.2904L18.9886 18.1624C18.8926 18.0664 18.7966 17.9704 18.7006 17.8744L18.5726 17.9064L18.6046 17.7784V17.6824L18.6366 17.5864L18.5726 17.7144V17.8744L18.5086 18.0024L18.4446 18.0664C18.3806 18.0024 18.3166 17.9704 18.2526 17.9384L18.0606 17.6504L18.0286 17.6824L18.1566 17.9064L18.3166 18.0984L18.5086 18.4184L18.6046 18.5464L18.7006 18.6744L18.9246 18.8664H18.8926L18.9246 18.9944L19.2126 19.1224L19.2766 19.1544L19.3726 19.3464L19.3086 19.4104L19.3726 19.6344L19.4686 19.8584C19.5646 19.8904 19.5966 19.9224 19.6926 19.9544L19.8206 20.1784L19.9166 20.3384L20.0446 20.4344L20.3646 20.5624C20.4926 20.6584 20.5886 20.6904 20.6846 20.7864L20.8126 20.8184L20.8766 20.8824V20.9784L20.7486 21.1064C20.8126 21.1384 20.8766 21.1384 20.9086 21.1704L20.9726 21.2664L21.1006 21.3304L21.2286 21.2984L21.4206 21.1704L21.6446 21.0744L21.8366 20.9464L21.9646 20.8824L22.0606 20.8184C22.1246 20.7864 22.1886 20.7544 22.2526 20.7224L22.3486 20.6584L22.4766 20.5944L22.5726 20.4664L22.6686 20.4344V20.4984L22.6366 20.6264V20.7864L22.6046 20.8824L22.5086 21.1064C22.4126 21.2984 22.3806 21.4904 22.2846 21.6824L22.0926 22.0344C21.9646 22.2264 21.8046 22.4504 21.6446 22.6744L21.4206 22.8984C21.2286 23.0264 21.0366 23.2184 20.8766 23.3464L20.4926 23.6024L20.4286 23.7304L20.3646 23.7944L20.1726 23.8584L20.1086 23.9544L20.0126 23.9864L19.9486 24.1144L19.8526 24.2104L19.7886 24.3384L19.6926 24.4344L19.5646 24.6584V24.7544L19.6926 24.7864V24.8184L19.5966 24.9464V25.0104L19.5646 25.1064L19.6286 25.2024L19.6926 25.3304H19.7886L19.8526 25.2664L19.8206 25.3944V25.5224L19.7566 25.7464L19.7886 25.8104L19.6926 25.9384L19.5646 26.0664L19.4366 26.1944C19.3086 26.2584 19.1166 26.3224 18.9886 26.3864L18.7006 26.5464H18.6046L18.4446 26.6744L18.3486 26.7064L18.3166 26.8024L18.4126 26.8664L18.4446 26.9304V26.9624H18.4766L18.4446 27.0904L18.3806 27.1544H18.4126L18.3486 27.1864L18.2526 27.2504C18.1246 27.3144 17.9646 27.3784 17.8046 27.3784L17.6766 27.4424V27.4744H17.7406L17.7086 27.5384L17.6126 27.6344L17.5486 27.6984L17.4846 27.7624C17.4206 27.7944 17.3566 27.8264 17.2926 27.8584L17.1646 27.9224L17.0686 27.9864L16.9406 28.0504C16.8126 28.1144 16.6846 28.1784 16.5246 28.2104L16.3646 28.2424L16.1726 28.3064H16.0766L16.0446 28.3384H15.9166L15.8206 28.3704H15.6926L15.5646 28.4024H15.4686L15.2766 28.4344L15.1166 28.4664L14.9886 28.4984H14.8926L14.7966 28.4664H14.7326L14.6366 28.4344L14.6046 28.4024V28.3704L14.5406 28.3064H14.6046V28.2424L14.5406 28.1464C14.4446 28.0824 14.3806 28.0184 14.2846 27.9864L14.1566 27.9224L14.0606 27.8584L13.9966 27.7624L13.9326 27.6984L13.8366 27.5704V27.4424L13.8046 27.3784L13.7086 27.3144L13.5486 27.1544L13.4206 27.0264L13.3566 26.9304L13.1646 26.8024L13.1326 26.7384L13.1006 26.6424L13.1326 26.5144L13.2286 26.3864V26.3224L13.3246 26.1944L13.3886 26.1304L13.5166 26.0344L13.6126 25.9704L13.6446 25.8424V25.7464L13.5486 25.6824C13.4846 25.6184 13.4526 25.5544 13.4206 25.5224V25.5864L13.5166 25.5224C13.4526 25.4264 13.4206 25.3624 13.3886 25.2664L13.2606 25.1384L13.2926 25.1064L13.2606 25.0424L13.1646 24.9464L12.9726 24.7544L12.7166 24.5624L12.5566 24.4344L12.4286 24.2424V24.1784L12.4926 24.1144L12.5566 23.9864L12.6206 23.8584L12.5566 23.8264L12.6526 23.6344L12.6846 23.5064L12.5886 23.3784L12.4606 23.3464L12.3966 23.2504L12.3326 23.2184V23.1544L12.0766 23.2184L11.9806 23.1864L11.8846 23.2184L11.6926 23.1864L11.4366 23.0264L11.3406 22.8984L11.1806 22.7704C11.0526 22.7064 10.8926 22.7064 10.7646 22.6744H10.5726H10.3806L9.96455 22.7384L9.83655 22.7704H9.61255L9.38855 22.6424H9.26055L9.10055 22.5464L8.97255 22.5144L8.68455 22.4824C8.55655 22.4824 8.42855 22.5144 8.26855 22.5144L8.20455 22.4824L8.14055 22.4504L7.91655 22.2904L7.69255 22.0984L7.50055 21.9384L7.34055 21.7464L7.27655 21.7144L7.08455 21.5864L6.95655 21.4264L6.92455 21.3304L6.89255 21.1704L6.79655 21.0424L6.73255 20.9144L6.66855 20.8504L6.60455 20.7864L6.57255 20.6904L6.54055 20.6264L6.47655 20.5624L6.38055 20.4664L6.28455 20.4344L6.22055 20.3384V20.3064L6.15655 20.2424C6.12455 20.1464 6.12455 20.1144 6.12455 20.0184L6.15655 19.9224L6.09255 19.7304L5.99655 19.6024H6.09255L6.22055 19.4744L6.28455 19.3784V19.2504L6.34855 19.1544L6.41255 18.9624V18.7384V18.6104L6.44455 18.5144L6.41255 18.3864L6.31655 18.2584C6.34855 18.1944 6.34855 18.1304 6.38055 18.0984L6.47655 18.0664L6.57255 17.9704V17.8744L6.66855 17.7464L6.79655 17.6504H6.89255L6.98855 17.5224L7.02055 17.3944L7.11655 17.2664L7.24455 17.2344L7.40455 17.0744L7.53255 17.0104L7.72455 17.0424L7.91655 16.9464L8.04455 16.9144L8.23655 16.7864V16.6264L8.36455 16.4664L8.42855 16.3384L8.58855 16.2104L8.81255 16.1784L8.97255 16.1144L9.16455 15.9224L9.26055 15.7944L9.42055 15.8264L9.54855 15.9544L9.74055 15.9864L9.96455 16.1144L10.0606 16.1464L10.2846 16.0504H10.5406L10.7006 15.9864L10.9246 15.9544C11.1806 15.9544 11.4366 15.9864 11.6926 16.0184L11.8206 16.1144L12.0446 16.0504L12.3006 16.0824L12.3966 16.1464H12.5246L12.7806 16.0824L12.9406 16.1144V16.2424L13.1326 16.1784V16.2424L13.0046 16.3704V16.4984L13.1006 16.5624L13.0686 16.7544L12.9086 16.8824L12.9406 17.0104H13.0686L13.1326 17.1384L13.2286 17.1704L13.5166 17.2664L13.6126 17.2344L13.8046 17.2984L14.1246 17.4264L14.2526 17.6184C14.4126 17.6504 14.6366 17.7144 14.7966 17.7464L15.0526 17.8744L15.1806 17.8104L15.3086 17.6824L15.2446 17.5224L15.3086 17.3944L15.4686 17.2664L15.6286 17.2344L15.9486 17.2664L16.0446 17.3624H16.1406L16.2366 17.3944H16.4606L16.5246 17.4584L16.8446 17.4264C17.0366 17.4584 17.2286 17.4904 17.4206 17.5544L17.5806 17.4584L17.6766 17.3624L17.8686 17.2984H18.0286L18.0926 17.4264L18.1566 17.3304L18.3166 17.3624L18.4766 17.3304L18.6046 17.2344L18.6686 17.1384H18.6366L18.7006 17.0104L18.7326 16.8504L18.7646 16.7864L18.8286 16.5944L18.9246 16.4344L18.8606 16.2744L18.8926 16.1464L18.7646 15.9864L18.8286 15.8584L18.7006 15.9224L18.5406 15.8904L18.2526 16.1144L17.9326 16.2104L17.7406 16.1144H17.5486L17.5166 16.2424L17.3886 16.3064L17.1646 16.2104L16.9406 16.2424L16.8126 16.0504L16.6526 15.9224L16.7486 15.7304L16.6206 15.6344L16.8446 15.4104L17.1646 15.3784L17.2286 15.2184L17.6446 15.1864L17.8686 15.0264L18.0926 14.8984L18.4446 14.8344L18.8286 14.9304L19.1486 14.9624L19.3726 14.8664L19.5326 14.8344L19.7246 14.6744V14.5464L19.5646 14.3864L19.4366 14.3224H19.3086L19.2126 14.2584L18.9246 14.1304L18.7006 14.0984L18.5086 14.0024L18.6366 13.9384L18.7646 13.7144L18.6366 13.6504L18.8926 13.5224V13.4584L18.7326 13.4904L18.5726 13.5224L18.4446 13.6184L18.2526 13.6824L18.1246 13.8104L18.1566 13.9384L18.2846 13.9704L18.4766 13.9064L18.4446 14.0344L18.2526 14.0984L17.9966 14.2584L17.8686 14.2264L17.9006 14.0984L17.6766 14.0664L17.7086 14.0024L17.8686 13.8744L17.8046 13.8424H17.4846L17.4526 13.7464L17.2926 13.8424L17.2286 13.9704L17.1006 14.1624V14.2264L17.0046 14.2904L16.9406 14.2584L16.9086 14.5464L16.8126 14.6744L16.7486 14.8344L16.8446 14.9624L16.8766 15.0584L17.0686 15.1224L17.0366 15.1864L16.7806 15.2184L16.6846 15.3144L16.5246 15.4424L16.4286 15.3144V15.2504H16.3006H16.1726L15.9486 15.3464L16.0766 15.4744L15.9486 15.5384C15.9166 15.5384 15.8526 15.5384 15.8206 15.5384L15.6926 15.4104V15.4424L15.7566 15.5704L15.8846 15.6984L15.7886 15.7624L15.9166 15.8584L16.0446 15.9224V16.0504L15.8846 15.9864L15.9486 16.1144L15.8206 16.1464L15.9166 16.3384H15.7886L15.6286 16.2424L15.5326 16.0824L15.4686 15.9544C15.4046 15.8584 15.3406 15.8264 15.2766 15.7304L15.2446 15.6664L15.2126 15.6344V15.5704L15.0526 15.4424L15.0206 15.3464L15.0526 15.2184L15.0846 15.1224L15.0526 15.0904L14.9886 15.0584L14.9246 14.9624C14.8286 14.8984 14.7326 14.8664 14.6366 14.8344L14.5086 14.7384L14.3166 14.7064L14.1246 14.5784L14.1886 14.5464L14.0926 14.4504V14.3544L13.9646 14.3224L13.9006 14.4184L13.8366 14.3224V14.2264L13.9006 14.1944L13.7406 14.1624L13.5806 14.2584V14.3864L13.5486 14.4504L13.6126 14.5784L13.8046 14.7064L13.9326 14.8984L14.1566 15.0904H14.3166L14.3806 15.1544L14.3166 15.2184C14.4446 15.2824 14.5406 15.3464 14.6686 15.3464L14.8606 15.4744L14.8926 15.5384L14.8606 15.6344L14.7326 15.4744L14.5406 15.4424L14.4446 15.5704L14.6046 15.6664L14.5726 15.7944H14.4766L14.3806 15.9864L14.2846 16.0184C14.2846 15.9864 14.2846 15.9544 14.2846 15.9544L14.3486 15.8264L14.4126 15.7624C14.3486 15.6664 14.2846 15.6024 14.2846 15.5064L14.1886 15.4744L14.1246 15.3464H13.9646L13.7406 15.2504L13.5806 15.2184L13.4206 15.0904L13.2286 14.9304L13.1006 14.8024L13.0366 14.5784L12.9086 14.5464L12.7486 14.4504L12.7166 14.4824L12.5886 14.5784H12.4926L12.2686 14.7064L11.8526 14.5784L11.5326 14.6104L11.4686 14.7384V14.8664L11.2126 14.9944H10.9246L10.8926 15.0904L10.7646 15.1864L10.6366 15.3464L10.7006 15.4744L10.5726 15.5384L10.5086 15.6664H10.3486L10.1246 15.8264C9.96455 15.7944 9.80455 15.7624 9.64455 15.6984L9.51655 15.7624L9.42055 15.8264L9.29255 15.7624L9.22855 15.6664L9.19655 15.5384L8.97255 15.4744L8.87655 15.5064L8.74855 15.4424H8.65255L8.71655 15.2824V15.1544L8.65255 15.0904L8.62055 14.9944L8.68455 14.8664L8.78055 14.8024L8.81255 14.7064L8.90855 14.5784L8.94055 14.4824L8.87655 14.3864V14.2904L8.94055 14.1624L8.87655 14.0344L9.19655 13.9384L9.42055 14.0664L9.67655 14.1304L9.86855 14.2264L10.0286 14.2584L10.3806 14.3544L10.5086 14.2264L10.6366 13.8104L10.4766 13.5224L10.3486 13.3944L10.0606 13.2664L10.0926 13.1064H10.3486L10.6686 13.2344V12.9784L10.8286 13.1064L11.3086 13.0104L11.4046 12.8504C11.5326 12.8504 11.6286 12.8184 11.7566 12.8184L11.8846 12.7544L12.1086 12.4344L12.3966 12.3704L12.5566 12.4024L12.5886 12.3384H12.8126L12.8446 12.4024L12.9726 12.3064L12.9406 12.2104V12.0824L12.8766 11.9544L12.9086 11.7304L12.9406 11.6664L13.0046 11.6024H13.1646L13.2286 11.5384L13.3566 11.4744L13.3246 11.6024L13.2606 11.6664L13.2926 11.7304L13.3886 11.7624L13.3246 11.8584L13.2606 11.8264L13.1326 11.9224L13.1646 12.0504V12.1464L13.3246 12.2104V12.3064L13.5166 12.2744L13.6446 12.2104L13.8366 12.3064L13.9326 12.4024L14.0606 12.3384C14.2206 12.2744 14.4126 12.2104 14.5726 12.1784L14.7326 12.2104L14.7646 12.2744H14.9246L14.9566 12.1784L15.2126 12.0824V11.8264V11.6664L15.3086 11.5384L15.4686 11.4424L15.5966 11.6024H15.7246C15.7246 11.4744 15.7566 11.4104 15.7566 11.2824L15.6926 11.3144L15.5646 11.2184L15.5326 11.0904L15.7246 10.9944L15.9166 10.9304L16.0766 10.9624L16.2366 10.9304L16.3966 10.8024L16.2046 10.7064L16.0126 10.8024L15.7246 10.9304L15.4686 10.9944L15.3726 10.8344L15.2126 10.7704L15.2446 10.5464L15.1486 10.3544L15.2126 10.2264L15.3406 10.0984L15.6926 9.84243L15.7886 9.77843L15.7566 9.68243L15.5966 9.61843L15.3406 9.71443L15.2126 9.84243L15.2446 9.97043L15.0206 10.1304L14.7326 10.3224L14.6046 10.6424L14.7326 10.7704L14.8926 10.8984L14.7326 11.1864L14.5726 11.2504L14.4126 11.6344L14.2846 11.8264L14.0606 11.7944L13.9326 11.9544H13.7406L13.6766 11.7304L13.5806 11.5064L13.4526 11.1864L13.3246 11.0584L12.9406 11.2824L12.7166 11.3144L12.4926 11.1864V10.8984L12.5246 10.3864L12.6846 10.2584L13.1326 10.1304L13.4846 9.93843C13.7086 9.71443 13.9326 9.49043 14.1886 9.23443C14.4126 9.10643 14.6046 8.94643 14.8286 8.81843L15.1166 8.69043H15.3406L15.5326 8.49843H15.7566L15.9806 8.43443L16.3966 8.56243L16.2686 8.62643L16.4286 8.75443L16.5566 8.65843L16.8126 8.75443L17.1966 8.72243L17.7726 8.85043L17.9326 8.94643L17.9966 9.07443L17.8686 9.20243L17.6766 9.33043C17.4846 9.33043 17.2286 9.29843 17.0046 9.26643L16.9086 9.33043L17.1646 9.45843L17.2606 9.77843L17.4526 9.81043L17.5806 9.84243V9.71443L17.4526 9.61843L17.5486 9.52243L17.9326 9.58643L18.0606 9.49043L17.9326 9.39443L18.1886 9.10643L18.3166 9.07443L18.4446 9.10643L18.4766 8.94643L18.3486 8.85043V8.72243L18.1566 8.62643L18.5406 8.59443L18.6686 8.69043L18.5406 8.78643L18.6046 8.91443L18.7326 8.94643L18.8926 8.81843L18.8606 8.69043L19.0526 8.53043L19.3726 8.21043L19.4686 8.17843L19.3726 8.30643L19.5006 8.27443L19.5326 8.17843L19.7246 8.08243L19.8526 7.95443L20.0446 8.01843L20.0766 7.85843L19.9166 7.79443V7.69843L20.2686 7.57043L20.4286 7.53843H20.9086L20.8766 7.41043L20.7166 7.37843V7.28243L20.5886 7.34643L20.5566 7.21843L20.3966 7.09043L20.3326 7.02643L20.3646 6.77043L20.2686 6.57843L20.3006 6.48243L20.5246 6.35443L20.6526 6.45043L20.7166 6.64243H20.8126L20.9406 6.73843L21.1326 6.99443L21.2926 7.02643L21.3566 7.15443L21.4206 7.53843L21.5486 7.47443L21.5166 7.37843L21.5806 7.25043L21.5166 7.12243V6.99443L21.3886 7.02643L21.3246 6.89843L21.2286 6.96243L21.1326 6.83443L21.0366 6.61043L20.8126 6.54643L20.8446 6.32243H20.7166L20.7486 6.29043L20.8766 6.35443L21.0046 6.51443L21.1326 6.48243L21.0046 6.38643L21.0686 6.22643L21.1966 6.09843L21.3886 6.06643L21.1966 6.00243L21.0046 5.87443L21.0686 5.74643L21.1966 5.61843L21.2926 5.45843L21.1646 5.42643L21.0686 5.26643L21.1326 5.17043L21.1006 4.97843L21.1646 4.78643L21.1006 4.72243L21.1646 4.56243L21.2286 4.53043L21.1646 4.33843L21.1326 4.14643L21.0366 4.08243L20.9406 3.95443L20.8766 3.76243L20.9726 3.66643L21.0366 3.79443L21.0686 3.66643L21.1966 3.69843L21.1326 3.60243V3.41043L21.2286 3.28243L21.2926 3.25043L21.4206 3.31443L21.5166 3.41043L21.6446 3.63443L21.7086 3.73043L21.7406 3.63443L21.7726 3.53843L21.7086 3.44243L21.8366 3.47443L21.7726 3.41043L21.7086 3.28243L21.6766 3.09043L21.7726 3.12243L21.6126 2.86643L21.4526 2.83443L21.3886 2.70643L21.3246 2.61043L21.3566 2.51443H21.4526L21.5806 2.61043L21.6766 2.57843V2.48243L21.4526 2.35443V2.25843L21.3246 2.13043L21.1966 2.00243L21.1006 1.93843L21.0046 1.84243H20.8766L20.7166 1.74643C20.5566 1.58643 20.5566 1.58643 20.1086 1.26643L19.9806 1.13843C16.8446 -0.205568 13.2606 -0.365568 9.99655 0.690432L10.1886 0.626432C10.0606 0.722432 9.90055 0.754432 9.74055 0.818432L9.48455 0.946432C9.38855 0.978432 9.32455 1.04243 9.19655 1.07443L9.29255 1.01043L9.42055 0.882432L9.45255 0.850432C9.42055 0.882432 9.35655 0.882432 9.32455 0.914432L9.35655 0.946432V0.978432L9.22855 1.10643L9.10055 1.17043H9.03655L8.87655 1.26643L8.68455 1.36243V1.42643L8.55655 1.49043L8.33255 1.55443H8.36455L8.58855 1.45843L8.55655 1.52243C8.46055 1.58643 8.39655 1.61843 8.30055 1.65043C8.17255 1.68243 8.07655 1.74643 7.94855 1.77843C7.82055 1.87443 7.66055 1.93843 7.53255 2.06643L7.46855 2.09843L7.59655 1.97043L7.46855 2.03443H7.43655C7.56455 1.93843 7.66055 1.87443 7.78855 1.77843L7.82055 1.71443L7.94855 1.58643C8.04455 1.52243 8.10855 1.45843 8.23655 1.39443C8.14055 1.42643 8.07655 1.49043 7.98055 1.52243H7.94855L7.91655 1.58643L7.75655 1.68243L7.69255 1.71443L7.82055 1.61843V1.65043L7.72455 1.74643L7.69255 1.81043C7.59655 1.87443 7.53255 1.93843 7.43655 1.97043L7.37255 2.00243L7.18055 2.13043L7.08455 2.25843L6.95655 2.38643L7.08455 2.32243L7.05255 2.38643L6.89255 2.54643L6.73255 2.57843H6.82855L6.76455 2.64243L6.89255 2.61043C7.02055 2.51443 7.08455 2.48243 7.21255 2.38643L7.40455 2.32243L7.50055 2.38643L7.40455 2.51443L7.27655 2.61043L7.02055 2.77043L6.95655 2.73843L6.82855 2.89843L6.66855 2.99443L6.76455 3.05843L6.60455 3.18643H6.47655L6.31655 3.31443L6.41255 3.34643H6.54055L6.73255 3.25043C6.70055 3.34643 6.63655 3.41043 6.60455 3.50643L6.47655 3.63443L6.41255 3.73043H6.31655L6.18855 3.85843L6.09255 3.89043L5.96455 3.76243L5.99655 3.63443L6.09255 3.50643L5.99655 3.53843H5.86855H5.80455L5.77255 3.50643L5.83655 3.37843L5.80455 3.34643L5.67655 3.41043L5.70855 3.31443L5.64455 3.28243H5.51655L5.38855 3.31443L5.22855 3.41043L5.13255 3.57043C5.00455 3.66643 4.90855 3.73043 4.81255 3.82643L4.74855 3.95443C4.62055 4.11443 4.49255 4.30643 4.33255 4.43443C4.26855 4.56243 4.20455 4.62643 4.14055 4.75443C4.10855 4.88243 4.04455 4.94643 4.01255 5.07443L3.88455 5.17043L3.75655 5.29843L3.56455 5.52243L3.40455 5.81043L3.43655 5.84243L3.56455 5.74643L3.82055 5.49043L3.91655 5.36243L3.94855 5.49043L4.04455 5.52243L4.17255 5.49043L4.30055 5.39443L4.42855 5.23443L4.55655 5.04243H4.71655L4.87655 4.91443L5.16455 4.72243L5.19655 4.75443L5.13255 4.88243V5.01043L5.19655 5.07443C5.13255 5.20243 5.06855 5.26643 5.03655 5.39443L4.90855 5.42643V5.58643L4.78055 5.71443L4.58855 5.90643L4.55655 6.03443L4.46055 6.16243L4.58855 6.22643L4.78055 6.16243H4.87655C4.71655 6.41843 4.55655 6.67443 4.42855 6.96243L4.26855 7.02643L4.23655 7.25043L4.17255 7.41043L4.20455 7.60243L4.17255 7.73043L4.04455 7.89043L4.07655 7.98643L4.04455 8.11443L3.91655 8.30643H3.82055L3.75655 8.24243L3.62855 8.11443H3.46855L3.37255 7.98643L3.30855 7.73043L3.27655 7.57043L3.24455 7.44243L3.11655 7.47443L3.02055 7.37843L2.82855 7.41043H2.70055L2.73255 7.50643L2.92455 7.47443L3.08455 7.60243L3.14855 7.73043L3.08455 7.89043H2.95655C2.86055 8.01843 2.79655 8.11443 2.73255 8.27443L2.70055 8.49843L2.79655 8.65843L2.98855 8.56243L2.89255 8.75443L2.86055 8.88243L2.73255 8.85043L2.57255 8.72243L2.47655 8.65843H2.34855V8.53043L2.47655 8.40243L2.60455 8.46643L2.57255 8.27443L2.54055 8.14643L2.50855 8.24243L2.41255 8.17843L2.31655 8.11443L2.25255 8.01843L2.15655 8.05043H2.12455L2.06055 8.14643L2.02855 8.30643V8.37043L2.09255 8.27443L2.06055 8.37043L2.02855 8.40243L1.99655 8.33843V8.27443L1.96455 8.21043C1.96455 8.17843 1.96455 8.11443 1.93255 8.08243V8.05043L1.96455 8.17843L1.93255 8.27443L1.90055 8.14643V8.05043H1.86855V8.11443L1.77255 8.21043L1.67655 8.24243L1.70855 8.17843V8.14643L1.74055 8.05043L1.67655 8.17843L1.64455 8.24243L1.61255 8.30643V8.33843L1.51655 8.40243V8.37043L1.58055 8.27443L1.64455 8.14643L1.74055 8.01843L1.67655 8.08243L1.58055 8.21043L1.61255 8.08243L1.54855 8.21043L1.42055 8.37043V8.43443C1.35655 8.53043 1.32455 8.59443 1.29255 8.69043L1.22855 8.72243V8.62643H1.16455C0.588554 9.90643 0.204554 11.3144 0.0765537 12.7544V12.7864C0.0125537 13.6184 -0.0194462 14.3864 0.0125538 15.1224C0.0445538 15.1864 0.0445537 15.2504 0.0765537 15.3144L0.0445537 15.2184V15.3464L0.0765537 15.4744L0.108554 15.6664V15.8264L0.140554 15.8904C0.172554 16.0504 0.204554 16.2104 0.236554 16.3704V16.4984L0.300554 16.6264C0.332554 16.7224 0.332554 16.8184 0.364554 16.9144L0.460554 17.1064V17.0744L0.524554 17.1704C0.588554 17.2984 0.652554 17.4584 0.684554 17.5864L0.780554 17.9064L0.812554 18.0344L0.844554 18.0664C0.908554 18.2584 0.940554 18.4504 0.972554 18.6424L1.03655 18.7384L1.06855 18.8664L0.972554 18.8984L1.00455 18.9944L1.16455 19.2504L1.19655 19.4424L1.26055 19.4104C1.38855 19.5704 1.48455 19.7944 1.61255 19.9544L1.70855 20.1144V20.2104L1.83655 20.3064L2.09255 20.6584L2.28455 20.8184C2.41255 21.0424 2.60455 21.2344 2.70055 21.4904L2.82855 21.6184L2.95655 21.7464L3.02055 21.8424C3.08455 21.9704 3.11655 22.0984 3.14855 22.2264L3.18055 22.4504L3.14855 22.5144L3.02055 22.5784L2.98855 22.7064V22.7704L2.95655 22.7064V22.8024C3.05255 22.9944 3.11655 23.2184 3.21255 23.3784V23.4104L3.24455 23.5064C5.16455 25.8744 7.82055 27.6024 10.7646 28.3384C13.5806 29.0744 16.6206 28.9464 19.3406 27.9224C24.3966 26.0664 28.1086 21.4264 28.7166 16.0504C28.7806 15.5704 28.7806 15.0904 28.7806 14.5784ZM13.4846 15.9544L13.7406 15.9864C13.8686 15.9864 13.9966 15.9544 14.1566 15.9544L14.0606 16.1144L14.0926 16.1784L14.0286 16.3064L13.8686 16.2104L13.7406 16.1784L13.4206 16.0504L13.4846 15.9544ZM18.7966 7.47443L18.9246 7.25043L18.7966 7.28243L18.8926 7.02643L18.7966 6.93043C18.9246 6.80243 19.0206 6.64243 19.1486 6.51443L19.3726 6.35443L19.4686 6.22643L19.5966 6.09843L19.7246 6.13043V6.22643C19.5966 6.38643 19.4686 6.54643 19.3406 6.70643L19.2126 7.02643L19.1806 7.25043L19.1486 7.50643L19.2766 7.63443L19.5326 7.66643L19.4686 7.73043L19.0846 7.85843L18.9886 7.76243L18.7966 7.79443L18.7006 7.69843L18.7966 7.60243V7.47443ZM3.82055 8.43443C3.72455 8.46643 3.66055 8.53043 3.53255 8.56243H3.62855V8.69043L3.56455 8.72243L3.59655 8.85043H3.66055L3.69255 9.01043L3.56455 9.10643L3.62855 9.17043L3.56455 9.26643L3.50055 9.39443L3.37255 9.49043L3.34055 9.45843L3.30855 9.33043L3.43655 9.20243V9.13843L3.27655 9.17043L3.21255 9.13843H3.34055L3.30855 9.01043L3.24455 8.88243L3.14855 8.65843L3.18055 8.59443H3.27655L3.30855 8.49843H3.43655L3.72455 8.37043L3.85255 8.33843L3.94855 8.37043L3.98055 8.43443H3.82055ZM9.19655 9.13843H9.06855C8.94055 9.01043 8.74855 8.94643 8.62055 8.81843L8.78055 8.78643L8.58855 8.56243L8.81255 8.62643L8.84455 8.56243L8.65255 8.40243L8.78055 8.30643L8.97255 8.37043L9.10055 8.59443L9.35655 8.56243L9.48455 8.69043L9.74055 8.65843L9.93255 8.75443L9.80455 8.88243L9.90055 9.07443L9.64455 9.17043C9.48455 9.17043 9.35655 9.17043 9.19655 9.13843ZM9.58055 12.1784L9.35655 12.0504L9.54855 11.8904L9.51655 11.6344C9.64455 11.5704 9.80455 11.5064 9.96455 11.4744L10.0926 11.5064L10.2206 11.6664L10.0926 11.7944L10.0606 11.9544L9.93255 12.1464L9.58055 12.1784ZM11.5006 12.5304L11.3726 12.5944L11.4366 12.7224L11.2446 12.7864L10.9886 12.7224H10.6366L10.5406 12.6584L10.4126 12.7544L10.2526 12.6584L10.1246 12.7224L10.0286 12.6584L10.3806 12.4984H10.5406L10.2526 12.3704L10.2206 12.2424L10.4126 12.2104L10.3486 12.0824L10.4446 11.9544L10.7006 12.0504L10.7646 11.9224L10.6686 11.7624L10.4766 11.6664L10.4446 11.6024L10.5406 11.5064L10.5086 11.4104L10.3486 11.5064L10.4126 11.3144L10.3486 11.1864L10.4766 10.9944L10.6366 10.8664L10.7646 10.9304L10.9566 10.9624L10.7006 11.1544H10.8926L11.0846 11.1864L10.9886 11.3464L10.7966 11.5064L10.9566 11.5704L11.0846 11.8904L11.2126 11.9544L11.2766 12.2424L11.3086 12.3384L11.5326 12.4344L11.5006 12.5304ZM8.74855 1.55443L8.94055 1.39443L9.06855 1.26643L9.19655 1.17043H9.26055L9.13255 1.26643C9.22855 1.20243 9.35655 1.13843 9.48455 1.04243L9.61255 0.978432L9.64455 1.04243L9.61255 1.07443C9.45255 1.17043 9.29255 1.23443 9.13255 1.29843L9.00455 1.39443L9.26055 1.29843V1.33043L9.16455 1.39443C9.10055 1.42643 9.03655 1.42643 8.97255 1.45843L8.94055 1.52243L8.84455 1.58643L8.74855 1.55443ZM9.29255 2.48243L9.26055 2.54643L9.16455 2.61043H9.29255L9.32455 2.67443V2.77043L9.29255 2.86643L9.26055 2.89843L9.29255 3.02643C9.29255 3.12243 9.29255 3.15443 9.29255 3.25043C9.29255 3.34643 9.29255 3.41043 9.29255 3.50643L9.26055 3.69843L9.19655 3.73043L9.06855 3.63443L8.97255 3.57043L8.94055 3.53843L8.97255 3.66643L8.84455 3.57043L8.74855 3.50643L8.58855 3.47443L8.55655 3.34643L8.52455 3.31443V3.15443L8.49255 3.25043L8.46055 3.21843L8.33255 3.31443L8.26855 3.28243L8.23655 3.18643H8.14055L8.07655 3.12243L7.98055 3.15443V3.28243L7.91655 3.31443L7.82055 3.18643L7.94855 2.99443L7.98055 2.83443C8.04455 2.73843 8.07655 2.70643 8.10855 2.61043L8.20455 2.57843L8.17255 2.70643L8.33255 2.61043V2.64243L8.17255 2.83443L8.33255 2.70643L8.42855 2.57843L8.49255 2.61043V2.70643H8.55655L8.68455 2.57843L8.81255 2.51443L8.71655 2.67443L8.68455 2.73843L8.74855 2.80243L8.81255 2.67443L8.87655 2.48243L9.00455 2.35443L9.13255 2.29043L9.26055 2.25843L9.35655 2.22643V2.32243H9.29255L9.22855 2.41843L9.29255 2.48243ZM8.74855 2.16243H8.81255L8.84455 2.19443L8.94055 2.06643L9.06855 2.00243L9.19655 1.93843L9.26055 1.97043L9.29255 2.00243L9.26055 2.06643L9.32455 2.03443L9.22855 2.16243L9.10055 2.25843C9.03655 2.32243 8.97255 2.38643 8.94055 2.45043L8.71655 2.54643L8.62055 2.64243L8.58855 2.57843L8.49255 2.48243L8.55655 2.35443L8.68455 2.22643L8.74855 2.16243ZM8.68455 2.06643L8.71655 1.97043L8.81255 1.90643L8.90855 1.87443L9.00455 1.84243L8.94055 1.93843L8.90855 1.97043L8.78055 2.06643H8.68455ZM8.46055 2.19443L8.33255 2.29043L8.23655 2.41843L8.14055 2.51443H8.07655L8.01255 2.57843L7.94855 2.64243C7.91655 2.70643 7.85255 2.77043 7.82055 2.83443V2.93043L7.75655 3.05843L7.69255 3.18643L7.59655 3.31443L7.50055 3.37843L7.43655 3.34643V3.18643L7.50055 3.09043L7.56455 2.89843L7.62855 2.77043L7.72455 2.64243L7.88455 2.45043L8.01255 2.38643L8.14055 2.35443L8.26855 2.25843L8.39655 2.13043L8.52455 2.03443H8.58855L8.46055 2.19443ZM9.10055 1.77843L8.97255 1.81043L8.87655 1.84243L9.00455 1.74643L9.13255 1.65043L9.26055 1.52243V1.58643L9.38855 1.52243H9.48455C9.32455 1.61843 9.19655 1.71443 9.10055 1.77843ZM8.30055 1.97043L8.39655 1.90643L8.52455 1.87443L8.62055 1.77843L8.74855 1.71443L8.65255 1.81043L8.62055 1.90643L8.52455 2.00243H8.55655L8.42855 2.03443L8.33255 2.06643C8.30055 2.06643 8.23655 2.06643 8.20455 2.06643L8.30055 1.97043ZM7.59655 2.22643L7.69255 2.16243C7.82055 2.06643 7.94855 2.00243 8.10855 1.90643H8.17255L8.04455 2.03443L8.20455 1.93843V2.00243L8.07655 2.09843L7.98055 2.22643L7.91655 2.25843L7.88455 2.22643L7.69255 2.32243L7.56455 2.29043L7.59655 2.22643ZM7.56455 2.35443L7.75655 2.25843L7.85255 2.22643L7.91655 2.25843V2.32243L7.78855 2.45043L7.69255 2.61043L7.56455 2.54643L7.59655 2.45043L7.50055 2.41843L7.56455 2.35443ZM5.48455 4.08243L5.58055 3.98643L5.51655 3.95443L5.48455 3.82643L5.61255 3.73043L5.64455 3.60243L5.70855 3.63443L5.83655 3.57043L5.96455 3.50643L5.93255 3.57043L5.83655 3.63443V3.66643L5.77255 3.82643C5.70855 3.92243 5.64455 3.98643 5.61255 4.08243L5.51655 4.14643V4.21043L5.42055 4.30643L5.38855 4.24243L5.48455 4.08243ZM5.86855 5.07443L5.77255 5.13843L5.67655 5.29843L5.58055 5.45843L5.54855 5.52243L5.38855 5.68243L5.26055 5.74643L5.29255 5.61843L5.42055 5.29843C5.32455 5.42643 5.29255 5.55443 5.19655 5.71443L5.13255 5.74643L5.16455 5.45843L5.26055 5.20243L5.35655 5.04243H5.42055C5.48455 4.91443 5.54855 4.78643 5.58055 4.65843L5.51655 4.69043V4.46643L5.61255 4.33843L5.74055 4.30643L5.70855 4.46643V4.62643L5.77255 4.56243L5.86855 4.53043H6.02855L6.12455 4.46643L6.18855 4.40243L6.28455 4.24243L6.38055 4.05043L6.41255 4.08243L6.54055 3.95443L6.57255 3.85843L6.66855 3.76243L6.70055 3.69843V3.57043L6.82855 3.25043C6.92455 3.12243 6.95655 3.02643 7.02055 2.93043L7.11655 2.83443L7.18055 2.89843L7.24455 2.77043L7.43655 2.67443H7.56455L7.59655 2.73843L7.56455 2.89843H7.37255L7.24455 3.02643H7.37255L7.40455 3.15443L7.18055 3.34643L7.05255 3.37843L7.08455 3.50643L7.14855 3.53843L7.02055 3.73043L6.92455 3.85843L6.82855 3.95443L6.89255 4.08243L6.76455 4.21043L6.70055 4.43443L6.63655 4.56243L6.47655 4.72243L6.34855 4.62643L6.25255 4.88243V5.01043L6.12455 5.23443L6.15655 5.36243L6.02855 5.42643H5.77255L5.83655 5.26643L5.96455 5.01043L5.86855 5.07443ZM5.86855 7.98643V7.73043L5.74055 7.57043L5.77255 7.41043L5.90055 7.21843L6.02855 6.86643L6.12455 6.73843L6.25255 6.61043L6.34855 6.35443L6.47655 6.25843L6.50855 6.13043L6.76455 6.03443L6.89255 6.09843L6.98855 6.06643L7.11655 5.97043L6.98855 5.93843L6.92455 5.90643L6.86055 5.84243V5.71443L6.98855 5.61843L7.11655 5.55443L7.18055 5.61843L7.24455 5.77843C7.27655 5.65043 7.27655 5.58643 7.30855 5.45843L7.24455 5.39443V5.29843L7.46855 5.23443L7.53255 5.13843C7.62855 5.01043 7.69255 4.91443 7.78855 4.78643L7.82055 4.65843L7.91655 4.59443L7.98055 4.37043L7.94855 4.24243C7.91655 4.11443 7.88455 4.05043 7.85255 3.92243L7.91655 3.79443L8.04455 3.63443L8.14055 3.76243L8.17255 3.89043L8.20455 3.60243L8.30055 3.44243L8.39655 3.41043L8.52455 3.60243L8.65255 3.76243L8.71655 3.57043L8.81255 3.60243L9.00455 3.73043L9.06855 3.79443L9.16455 3.73043L9.29255 3.82643L9.42055 3.95443L9.51655 4.08243L9.48455 4.17843L9.67655 4.24243L9.70855 4.40243L9.74055 4.49843L9.77255 4.62643V4.46643L9.86855 4.40243L10.1246 4.49843L10.2526 4.65843H10.3806C10.6046 4.78643 10.7966 4.97843 11.0206 5.10643C11.1166 5.23443 11.2126 5.33043 11.3406 5.45843H11.1806C10.9886 5.33043 10.7646 5.26643 10.5406 5.13843V5.20243L10.7646 5.33043L10.8926 5.49043L11.0526 5.52243V5.61843L10.8926 5.68243L11.1166 5.71443C11.2446 5.74643 11.4046 5.77843 11.5326 5.81043L11.7566 5.93843V6.03443H11.3406L11.2446 6.06643L10.9566 5.97043L11.1166 6.06643L10.9246 6.16243L10.7966 6.25843L10.6686 6.45043L10.7006 6.61043L10.5726 6.54643H10.3806L10.4766 6.70643L10.3806 6.86643L10.2526 6.83443L10.2846 7.02643L10.0606 6.93043L10.1246 7.05843L10.0286 7.12243L9.90055 7.09043L9.77255 7.02643L9.80455 7.18643L9.74055 7.28243L9.61255 7.12243L9.51655 7.15443L9.61255 7.28243L9.67655 7.44243L9.61255 7.57043L9.42055 7.50643C9.38855 7.41043 9.35655 7.34643 9.32455 7.21843L9.26055 7.34643L9.10055 7.37843C9.22855 7.47443 9.35655 7.50643 9.51655 7.60243L9.10055 7.63443H8.71655L8.36455 7.50643L8.23655 7.44243H8.01255L7.72455 7.53843L7.43655 7.50643L7.37255 7.47443C7.24455 7.44243 7.18055 7.37843 7.05255 7.34643L6.92455 7.41043L6.79655 7.53843L6.66855 7.63443H6.41255L6.31655 7.79443C6.18855 7.89043 6.09255 7.92243 5.96455 8.01843L5.86855 7.98643ZM21.7086 25.3624L21.6446 25.4264L21.6126 25.3624L21.5486 25.4264V25.5224V25.5864L21.4846 25.6504L21.4206 25.7784C21.1966 26.0664 20.9726 26.3224 20.7166 26.5784L20.5886 26.7064C20.4606 26.7704 20.3646 26.8344 20.2366 26.8664C20.1406 26.8664 20.1086 26.8664 20.0126 26.8664L19.9806 26.8344L20.0126 26.7384L19.9806 26.6744L20.0126 26.5784L20.0766 26.4824L20.1726 26.4184L20.2046 26.3864L20.3326 26.2584L20.3966 26.1624L20.3326 26.0984V26.0344L20.3646 25.9064L20.4606 25.8104L20.5246 25.7144L20.6526 25.6824C20.7166 25.6504 20.7806 25.6184 20.8446 25.5544L20.9406 25.5224C21.0686 25.4264 21.1646 25.3624 21.2926 25.2664L21.3886 25.1704V25.2664H21.4846L21.6126 25.1384L21.6446 25.0424L21.7406 24.9464L21.8046 24.9784L21.8366 25.0104L21.8686 25.1064L21.7726 25.2344L21.8046 25.2984L21.7086 25.3624ZM27.5326 18.3544L27.4686 18.4824L27.3406 18.6424L27.3086 18.5464L27.2766 18.2904L27.3406 17.8744L27.4366 17.9064L27.5006 18.0024L27.5646 18.1304V18.3544H27.5326Z" fill="url(#paint0_linear_95_1633)"/>
<defs>
<linearGradient id="paint0_linear_95_1633" x1="0" y1="14.4031" x2="28.7806" y2="14.4031" gradientUnits="userSpaceOnUse">
<stop stop-color="#005DFF"/>
<stop offset="1" stop-color="#5F5CA4"/>
</linearGradient>
</defs>
</svg>
