<svg width="33" height="33" viewBox="0 0 33 33" fill="none" xmlns="http://www.w3.org/2000/svg">
<path d="M4.77014 27.8431C11.1313 34.2038 21.481 34.2038 27.8422 27.8431C34.2034 21.4819 34.2034 11.1322 27.8422 4.77052C21.481 -1.59017 11.1324 -1.59017 4.77014 4.77052C-1.59005 11.1322 -1.59005 21.4819 4.77014 27.8431ZM30.9572 10.961L31.1356 10.7836L31.3256 10.5936L31.3413 10.6104C31.6817 11.5092 31.9391 12.4323 32.1114 13.3687L31.8145 13.2592C31.8145 13.2592 31.8697 13.205 31.5424 12.9871C31.2156 12.7693 31.32 12.9932 31.2131 12.6092C31.1072 12.2251 31.1072 12.2251 31.1072 12.2251L31.134 11.872C31.134 11.872 31.054 11.5725 30.9993 11.4089C30.944 11.2457 30.944 11.2457 30.944 11.2457L30.9572 10.961ZM14.1029 1.20764L14.2119 1.09769C14.2119 1.09769 14.3477 1.12556 14.375 0.935053C14.4019 0.744547 14.4019 0.744547 14.4019 0.744547L14.565 0.5814L14.6375 0.319453C18.9806 -0.130467 23.4727 1.17977 26.9469 4.24967L26.6728 4.30895L26.2097 4.60788L26.074 4.85311L26.2371 5.23361L26.3729 5.09732L26.5102 4.96052H26.837L27.1359 4.98839L27.3974 5.03247L27.4349 5.17839L27.5717 5.31519L27.7951 5.59335L27.789 6.13193V6.40351L27.5975 6.59401L27.4896 6.70295L27.3264 6.86609L27.2165 6.97604L27.0265 7.49233L26.1854 7.35908L25.6007 6.8286L25.5197 6.90967C25.5197 6.90967 25.2309 6.83823 25.1219 6.78401C25.012 6.73031 24.632 6.51244 24.632 6.51244L24.2231 6.43087L24.1699 6.70244L24.4688 7.00188C24.4688 7.00188 24.5499 7.02975 24.6588 7.13868C24.7678 7.24761 24.9745 7.45484 24.9745 7.45484L25.2577 7.90071L25.4011 7.98887L25.5328 8.01268L26.0197 8.11807L26.836 8.17228L27.4881 8.06335L27.598 7.95492L27.7059 7.84599L27.9238 7.62761L28.0069 7.54604L28.278 7.65497L28.5232 7.68284L28.659 7.81863C28.659 7.81863 28.4411 7.7102 28.5232 7.95543C28.6042 8.19964 28.659 8.68959 28.659 8.68959V8.90745L28.6858 9.31633L28.85 9.85948L28.9032 10.1316L28.8763 10.4315L29.1216 10.7847L29.2837 11.2199L29.5016 11.5467L29.6657 11.9272L29.8015 12.0635C29.8015 12.0635 30.0736 12.2819 30.1557 12.4724C30.2367 12.6629 30.4267 12.8534 30.4267 12.8534L30.5078 13.1523L30.562 13.4244L30.7115 13.8191L30.6998 14.1585L30.8346 14.4585L30.9714 14.6485L31.2435 15.2474L31.3524 15.4105C31.3524 15.4105 31.2703 15.6015 31.2982 15.8457C31.3261 16.091 31.244 16.4999 31.244 16.4999L31.2171 16.7983L31.0261 17.3698L30.8893 17.8319L30.2904 18.1587L29.6926 17.8866L29.3116 17.5061L29.1205 17.3698L28.6574 17.1256L28.2506 16.8804L27.8964 16.5804L27.3796 16.1725L26.8897 15.9005L26.2366 15.3568L26.0466 15.1663C26.0466 15.1663 26.0734 15.0842 25.8556 14.8664C25.6377 14.6485 25.4204 14.4311 25.4204 14.4311L24.713 14.1591L24.251 13.9691L24.1142 13.888L23.57 13.7791L23.2989 13.887L23.0258 14.1591L22.8627 14.3227C22.8627 14.3227 22.5106 14.6764 22.4006 14.7311C22.2917 14.7853 22.2451 14.8329 22.0642 14.9586C21.8843 15.0847 21.8843 15.0847 21.8843 15.0847L21.6943 15.22L21.4222 15.4926L21.2105 15.5407L20.7413 15.6289L20.6055 15.4926L19.8435 15.2747L19.7067 15.1384H19.4356L19.2988 15.0027L18.704 14.8425C18.704 14.8425 18.2647 14.4038 18.2368 14.3769C18.21 14.3496 17.8847 14.0233 17.8847 14.0233C17.8847 14.0233 17.5848 14.0506 17.6658 13.8054C17.7479 13.5612 17.638 13.1802 17.638 13.1802L17.7753 12.6629L17.8087 12.1395L17.8285 11.7382L17.6927 10.9488L17.5837 10.7857L17.5462 10.4421L17.4388 10.3317L16.7964 10.4305C16.7964 10.4305 16.4696 10.5936 16.4017 10.4442C16.3338 10.2947 16.3333 10.2947 16.3333 10.2947L15.9386 9.98108L15.8307 9.87215L15.8981 9.69583L15.7633 9.28695L15.8433 9.15167C15.8433 9.15167 15.9594 9.14407 16.1321 9.02449C16.3064 8.90593 16.3064 8.90593 16.3064 8.90593C16.3064 8.90593 16.4154 8.85172 16.5775 8.57913C16.7417 8.30705 16.7417 8.30705 16.7417 8.30705L16.5775 8.03649L16.2517 8.09071L15.9249 7.98177L15.5718 8.17177L15.2885 8.18191L15.4081 7.95441L15.5439 7.60127L15.7618 7.22025L15.7076 6.78503L15.8175 6.67609L15.7623 6.40401L15.7344 6.15929C15.7344 6.15929 15.7623 6.023 15.7886 5.83249C15.8165 5.64199 15.8175 5.47884 15.8175 5.47884L15.8165 5.15255L15.9796 4.98889L16.3885 4.63575L16.5243 4.49996L16.7153 4.30844L17.0132 3.84636L17.0411 3.43799L16.9778 3.12081L17.2042 2.89383L17.0953 2.78489L16.9874 2.56703L16.7072 2.39679L16.4432 2.24073L16.3064 2.10444L16.1225 1.92052L15.6437 1.78676L15.7962 2.24631L15.6594 2.3826L15.7633 2.64759L15.9801 2.86545L16.1433 3.35591L16.2801 3.60113L16.2522 3.84484L15.9254 4.17215L15.8155 4.28159L15.7886 4.58052L15.6528 4.71681L15.2997 4.79839H14.9729L14.7819 4.98839L14.5909 4.79839L14.5442 4.55975L14.4145 4.43055L14.3461 4.17215L14.4829 4.03585C14.4829 4.03585 14.2098 3.60113 14.2098 3.43697C14.2098 3.27383 14.2641 3.16439 14.2641 3.16439L14.1217 2.69471L14.3127 2.50471L14.1561 2.07607L14.0751 1.55927L14.1029 1.20764ZM13.7473 7.49233L13.7503 7.50095C13.8435 7.42697 13.9661 7.32868 13.9661 7.32868L14.0761 7.21924L14.2017 7.09359L14.1572 6.81137L14.1029 6.48559L13.9129 6.18564L14.0209 6.07671L14.185 5.91305L14.3198 5.77777L14.5387 5.99564L15.0276 6.48559L15.2455 6.70345C15.2455 6.70345 15.2455 6.70345 15.2186 6.89345C15.1908 7.08447 15.4096 7.08447 15.4096 7.08447L15.1908 7.30233L15.0286 7.46447L14.7844 7.70969L14.5914 7.90121L14.3745 8.11908L14.2281 8.26449L14.0817 8.41092L13.8922 8.21991L13.7554 8.08412L13.6464 7.97519L13.7898 7.83231L13.7503 7.50095C13.6464 7.58252 13.5775 7.63471 13.7473 7.49233ZM10.2452 6.57375L10.3273 6.49116L10.4291 6.39033L10.6232 6.19628C10.6232 6.19628 10.6738 6.1446 10.8162 6.16537C10.9596 6.18513 10.8973 6.0838 10.8973 6.0838L11.2448 5.94092L11.3259 5.85985H11.5306L11.6436 5.97183L11.5615 6.05289L11.7763 6.26772L11.6735 6.36956L11.5103 6.53321L11.2661 6.77692C11.2661 6.77692 11.2661 6.77692 11.185 6.81847C11.104 6.859 10.7564 7.04191 10.7564 7.04191L10.4499 7.10372L10.3688 7.18529L10.1849 7.00239C9.91889 6.89953 10.2046 6.77692 10.2452 6.57375ZM9.71419 21.7555L9.81705 21.6532L10.1023 21.5711L10.3475 21.6532L10.4256 21.5746L10.5482 21.6972L10.8567 21.7555L11.0219 21.5919L11.2854 21.3274L11.8473 21.1536L11.9592 21.4292L11.8169 21.5721L11.6547 21.7342C11.6547 21.7342 11.6547 21.7342 11.4698 21.8366C11.2859 21.9389 11.368 21.9384 11.368 21.9384L11.2661 22.0403L11.185 22.1218L11.0792 22.2272L10.4914 22.3255L10.3886 22.2242L10.2974 22.1315L10.1241 22.0808L9.69443 22.1011L9.61337 22.0195L9.5323 21.9384L9.61337 21.8568L9.71419 21.7555ZM3.04342 7.98127L3.24609 7.04241C3.24609 7.04241 3.24609 7.04039 3.24609 6.92132C3.74769 6.22516 4.30806 5.55889 4.93329 4.93316C5.93395 3.93249 7.03494 3.09345 8.20483 2.41148V2.61415L8.18507 2.88015L8.12275 3.06305V3.30828L8.22561 3.73692L8.30667 3.81799L8.38875 3.90007L8.48958 4.00191L8.53214 4.24612L8.44905 4.57292L8.51035 4.63473L8.51137 4.87844L8.61321 4.98079L8.71403 5.08313L8.87718 5.24577L9.11278 5.48087L9.10214 5.71545L9.22475 5.83807L8.95977 6.18463L9.18422 6.40908V6.69484C9.18422 6.69484 9.10214 6.85799 9.06161 6.93956C9.02107 7.02113 8.89947 7.18428 8.89947 7.18428L8.81739 7.34743L8.75609 7.57188L8.81739 7.83687C8.81739 7.83687 8.75609 8.18343 8.73531 8.28527C8.71454 8.38761 8.55241 8.87756 8.55241 8.87756C8.55241 8.87756 8.55241 8.87756 8.49009 8.9794C8.42878 9.08175 8.37153 9.3442 8.37153 9.3442L8.28742 9.55092C8.28742 9.55092 8.34771 10.1427 8.36849 10.2445C8.38926 10.3469 8.44955 10.6524 8.44955 10.6524L8.34771 10.7543L8.22611 10.8769L8.08273 10.734L7.96011 10.8571L7.75745 10.6529L7.43014 10.7345C7.43014 10.7345 7.34907 10.5713 7.20569 10.5105C7.06331 10.4492 6.83937 10.4285 6.83937 10.4285L6.59414 10.1832L6.34993 9.93852L6.14523 9.93953L5.73737 9.53167L5.53217 9.40956L5.40854 9.20588L5.34825 8.94039L5.18611 8.77724L5.10403 8.69516L4.65462 8.49249L4.49147 8.41041C4.49147 8.41041 4.30857 8.43119 4.20571 8.45196C4.10387 8.47223 4.08411 8.57356 4.08411 8.57356L3.94073 8.71644L3.51209 9.14457L3.22633 9.18612L3.04342 9.00321L2.96134 8.71695L2.90105 8.36988L3.04342 7.98127ZM0.307926 14.838L0.5719 14.8988L0.65398 15.0219L0.756833 15.3279L0.878434 15.2459L1.20523 14.838L1.08262 14.4707L0.899714 14.1231L0.735553 13.8779L0.69502 13.7152L1.44995 13.2455L1.6131 13.3681L1.85833 13.4087L2.0007 13.5115L2.10254 13.3276L2.17955 13.169L1.9551 12.9451L1.89987 12.6745L1.69518 12.2656L1.59435 12.1638L1.57257 11.7762L1.51227 11.6333L1.59334 11.5517C1.59334 11.5517 1.81779 11.4504 2.02198 11.4909C2.22566 11.532 2.16435 11.3476 2.16435 11.3476C2.16435 11.3476 2.16435 11.3476 2.5327 11.3075C2.90003 11.2665 2.83771 11.0015 2.83771 11.0015L3.22582 10.9807L3.3079 10.8997C3.3079 10.8997 3.91945 10.9412 4.1439 11.001C4.36835 11.0628 4.4099 11.1844 4.4099 11.1844L4.73569 11.1033L4.89985 11.2665L5.30771 11.3486L5.51139 11.5107L5.61425 11.9804L5.49062 12.103C5.49062 12.103 5.38979 12.2053 5.28694 12.3072C5.18611 12.4085 5.02195 12.6132 5.02195 12.6132L4.87958 12.7561L4.49147 12.98L4.40939 12.8584L4.20571 12.6548L3.63369 12.369L3.53286 12.2672L3.41025 12.1851L3.32817 12.2672L3.20657 12.3888L3.22734 12.5727C3.22734 12.5727 3.22734 12.5727 3.18579 12.8584C3.14526 13.1437 3.1255 13.1645 3.1255 13.1645L3.2471 13.4087L3.34894 13.7147L3.45179 13.8171L3.47054 14.001L3.24203 14.23L2.98161 14.4909L2.9203 14.5512L2.83822 14.6333L2.96083 14.7954L2.94107 15.0209L3.08345 15.3675L2.83822 15.3269L2.9203 15.6943L3.10422 15.8777L3.32867 15.9385L3.51158 15.9592L3.65497 16.0205L3.94022 16.0611L4.49147 16.1634L4.99611 15.9846L5.12379 15.9385L5.26718 15.8772L5.42931 15.5919L5.28694 15.1217C5.28694 15.1217 5.20486 15.0001 5.1851 14.8572C5.16433 14.7144 4.75646 14.306 4.75646 14.306C4.75646 14.306 4.67539 14.1839 4.61409 14.1226C4.55278 14.0613 4.39065 13.8165 4.39065 13.8165L4.26803 13.6944L4.47171 13.4908L4.65462 13.5105L4.71593 13.4497C4.71593 13.4497 4.98091 13.47 5.36801 13.5318C5.75611 13.5926 5.45009 13.4502 5.45009 13.4502L5.79665 13.3073L5.92027 13.1842L6.16449 12.94L6.6139 12.8584L6.83835 12.9603L7.02126 13.0211L7.40937 13.1239L7.83801 13.2258L8.8179 13.2663L9.02158 13.4295L9.49075 13.7355L9.59259 13.8378L9.45022 14.266L9.34737 14.3678C9.34737 14.3678 9.06211 14.5309 8.9395 14.6536L8.63347 14.7959L8.18507 14.5512L8.15619 14.8025L8.12275 15.1025L8.00115 15.2241L8.18507 15.8164L8.49009 15.8366L8.73633 15.5914L8.93899 15.4293L9.14369 15.3067L9.12798 15.4242L9.09555 15.6811L9.0687 15.8711L8.76977 16.2805L8.65982 16.4421L8.57875 16.5794L8.46982 16.7415L8.33403 16.8778L8.03409 17.2862L7.95302 17.5314L8.46982 18.1024L8.68769 18.3198L8.82449 18.5108L8.74241 18.9734L8.74342 19.3544L8.66235 19.6523L8.79915 19.7881L8.52505 20.2801L8.98713 20.688L9.25921 21.1779L9.58601 21.3958C9.58601 21.3958 9.39601 21.4779 9.23286 21.5316C9.06971 21.5868 9.06971 21.5868 8.8787 21.6136C8.6887 21.641 8.4987 21.7226 8.4987 21.7226L8.14454 21.6947C8.14454 21.6947 7.95454 21.8857 7.76454 22.0762C7.57353 22.2667 7.54566 22.3488 7.54566 22.3488L7.21886 22.9472L7.16465 23.1645L7.30145 23.464L7.41038 23.6819L7.81825 23.9813L8.14505 23.6545L8.28083 23.5729L8.52606 23.3282C8.52606 23.3282 8.52606 23.3282 8.63499 23.274C8.74494 23.2198 8.93494 23.0835 8.93494 23.0835L9.31494 23.3013L9.45174 23.7639L10.159 23.5461L10.349 23.5734L10.5122 23.5197L10.839 23.5734L11.3011 23.5461L11.71 23.5734L12.1178 23.3829L12.2551 23.2456L12.1741 23.1645L12.281 22.8388L12.3899 22.6209L12.6078 22.5672L12.8809 22.2946L13.0977 22.132C13.0977 22.132 14.2408 21.5878 14.376 21.5604C14.5128 21.5336 14.6481 21.3421 14.6481 21.3421L16.3343 21.0705L16.5795 21.1516L16.8248 21.2884L17.11 21.5736L17.4642 21.2205L18.2125 21.0436C18.2125 21.0436 18.4025 20.9621 18.6488 20.88C18.893 20.7989 18.6488 20.88 18.7835 20.8531C18.9203 20.8258 19.0288 20.7721 19.0288 20.7721L19.1919 20.7179C19.1919 20.7179 19.1919 20.7179 19.463 20.6089C19.7361 20.4995 19.735 20.88 19.735 20.88L19.8982 21.0436L20.1703 21.3157C20.1703 21.3157 20.1703 21.3157 20.1981 21.452C20.226 21.5878 20.2792 21.8599 20.2924 22.0114C20.304 22.1629 20.6339 22.3225 20.7813 22.5008C20.9298 22.6797 20.906 22.6498 20.906 22.6498C20.906 22.6498 21.097 22.7856 21.2049 22.9482C21.3138 23.1119 21.5317 23.6018 21.6138 23.846C21.6948 24.0902 21.6128 24.4449 21.6128 24.4449C21.6128 24.4449 21.6138 24.8801 21.5859 25.0169C21.559 25.1517 21.559 25.3701 21.559 25.3701L21.1502 25.9416L21.287 26.73C21.287 26.73 21.5859 26.9752 21.668 27.111C21.749 27.2478 21.8858 27.8183 21.8858 27.8183C21.8858 27.8183 21.7227 28.5803 21.6148 28.8524C21.5048 29.1245 21.6958 28.9335 21.6958 28.9335C21.6958 28.9335 21.7769 29.1245 21.859 29.4234C21.9401 29.7233 22.0748 29.5876 22.2669 29.8323C22.4548 30.074 22.4548 30.2913 22.4548 30.2913C22.4548 30.2913 22.4548 30.2913 22.5638 30.6181C22.6717 30.9449 22.7269 30.7813 22.7269 30.7813L22.9139 30.9682C22.7664 31.0346 22.618 31.0995 22.4685 31.1613L22.4548 31.1623L22.0728 31.217L21.9107 31.0533L21.4486 30.8623L21.1486 30.5634C21.1486 30.5634 21.1486 30.5634 20.9855 30.4003C20.8234 30.2371 20.6324 30.3192 20.6324 30.3192L20.1703 29.8571L20.0735 29.9529C20.0735 29.9529 19.735 29.5845 19.5836 29.4629C19.4321 29.3423 19.0541 28.9583 18.973 28.8767C18.8909 28.7951 18.5641 28.4141 18.3741 28.2783L17.9931 27.8968L17.4221 27.5979C17.4221 27.5979 17.2853 27.5163 17.068 27.5163C16.8506 27.5163 16.8501 27.2984 16.8501 27.2984C16.8501 27.2984 16.0881 27.1353 15.9518 27.0537C15.816 26.9721 14.9729 26.6732 14.9729 26.6732H14.5387L14.4019 26.5364L14.2387 26.6996L13.6946 26.7538L13.3956 26.1285L13.1494 25.6665L13.0146 25.4755L12.1715 24.3056L12.0616 24.1961L11.7626 24.2235L11.3264 24.2782L11.0822 24.2508L10.9743 24.3603L10.4022 24.6045L9.88545 24.6319L9.09555 24.5498L8.93241 24.7134L8.85134 24.6319L8.63347 24.8497L7.8983 25.3665H7.46257L6.61947 24.9587L6.42947 25.1487L5.77739 25.3118L5.26009 24.7945L5.12329 24.6582L4.85222 24.3861L5.26009 25.2839L4.96014 25.2566L4.82435 25.1228L4.71542 25.2317L4.17126 24.6876L3.80393 24.565L3.45078 24.2108L3.15083 23.9114L2.5935 23.5988L2.18462 23.1899L1.96675 22.9725C1.96675 22.9725 1.96675 22.9725 1.88569 22.8362C1.80361 22.7004 1.44945 21.9658 1.44945 21.9658C1.44945 21.9658 1.39878 22.0185 1.27515 22.0195C0.40622 19.7217 0.0778998 17.2649 0.29526 14.8481L0.307926 14.838Z" fill="#0D3458"/>
</svg>
