<svg width="10" height="10" viewBox="0 0 10 10" fill="none" xmlns="http://www.w3.org/2000/svg">
<path d="M3.49585 7.70405V3.47072C3.49585 3.30405 3.54585 3.14155 3.63752 3.00405L4.77502 1.31239C4.95418 1.04155 5.40002 0.849888 5.77918 0.991555C6.18752 1.12905 6.45835 1.58739 6.37085 1.99572L6.15418 3.35822C6.13752 3.48322 6.17085 3.59572 6.24168 3.68322C6.31252 3.76239 6.41668 3.81239 6.52918 3.81239H8.24168C8.57085 3.81239 8.85418 3.94572 9.02085 4.17905C9.17918 4.40405 9.20835 4.69572 9.10418 4.99155L8.07918 8.11239C7.95002 8.62905 7.38752 9.04989 6.82918 9.04989H5.20418C4.92502 9.04989 4.53335 8.95405 4.35418 8.77489L3.82085 8.36239C3.61668 8.20822 3.49585 7.96239 3.49585 7.70405Z" fill="white"/>
<path d="M2.17087 2.6582H1.74171C1.09587 2.6582 0.833374 2.9082 0.833374 3.52487V7.71654C0.833374 8.3332 1.09587 8.5832 1.74171 8.5832H2.17087C2.81671 8.5832 3.07921 8.3332 3.07921 7.71654V3.52487C3.07921 2.9082 2.81671 2.6582 2.17087 2.6582Z" fill="white"/>
</svg>
