<svg width="20" height="20" viewBox="0 0 20 20" fill="none" xmlns="http://www.w3.org/2000/svg">
<path d="M16.6663 5.83317V14.1665C16.6663 17.4998 15.833 18.3332 12.4997 18.3332H7.49967C4.16634 18.3332 3.33301 17.4998 3.33301 14.1665V5.83317C3.33301 2.49984 4.16634 1.6665 7.49967 1.6665H12.4997C15.833 1.6665 16.6663 2.49984 16.6663 5.83317Z" stroke="white" stroke-width="1.25" stroke-linecap="round" stroke-linejoin="round"/>
<path d="M11.6663 4.5835H8.33301" stroke="white" stroke-width="1.25" stroke-linecap="round" stroke-linejoin="round"/>
<path d="M10.0007 15.9168C10.714 15.9168 11.2923 15.3385 11.2923 14.6252C11.2923 13.9118 10.714 13.3335 10.0007 13.3335C9.28728 13.3335 8.70898 13.9118 8.70898 14.6252C8.70898 15.3385 9.28728 15.9168 10.0007 15.9168Z" stroke="white" stroke-width="1.25" stroke-linecap="round" stroke-linejoin="round"/>
</svg>
