<svg width="20" height="20" viewBox="0 0 20 20" fill="none" xmlns="http://www.w3.org/2000/svg">
<path d="M15.833 13.3333V5.41667C15.833 4.5 15.083 3.75 14.1663 3.75H9.58301" stroke="white" stroke-width="1.25" stroke-linecap="round" stroke-linejoin="round"/>
<path d="M11.667 1.6665L9.16699 3.74984L11.667 5.83317" stroke="white" stroke-width="1.25" stroke-linecap="round" stroke-linejoin="round"/>
<path d="M15.833 18.3335C17.2137 18.3335 18.333 17.2142 18.333 15.8335C18.333 14.4528 17.2137 13.3335 15.833 13.3335C14.4523 13.3335 13.333 14.4528 13.333 15.8335C13.333 17.2142 14.4523 18.3335 15.833 18.3335Z" stroke="white" stroke-width="1.25" stroke-linecap="round" stroke-linejoin="round"/>
<path d="M4.16699 6.6665V14.5832C4.16699 15.4998 4.91699 16.2498 5.83366 16.2498H10.417" stroke="white" stroke-width="1.25" stroke-linecap="round" stroke-linejoin="round"/>
<path d="M8.33301 18.3332L10.833 16.2498L8.33301 14.1665" stroke="white" stroke-width="1.25" stroke-linecap="round" stroke-linejoin="round"/>
<path d="M4.16699 6.6665C5.5477 6.6665 6.66699 5.54722 6.66699 4.1665C6.66699 2.78579 5.5477 1.6665 4.16699 1.6665C2.78628 1.6665 1.66699 2.78579 1.66699 4.1665C1.66699 5.54722 2.78628 6.6665 4.16699 6.6665Z" stroke="white" stroke-width="1.25" stroke-linecap="round" stroke-linejoin="round"/>
</svg>
