<svg width="24" height="24" viewBox="0 0 24 24" fill="none" xmlns="http://www.w3.org/2000/svg">
<path d="M18 8.00024C19.6569 8.00024 21 6.6571 21 5.00024C21 3.34339 19.6569 2.00024 18 2.00024C16.3431 2.00024 15 3.34339 15 5.00024C15 6.6571 16.3431 8.00024 18 8.00024Z" stroke="#9810FA" stroke-width="1.5" stroke-linecap="round" stroke-linejoin="round"/>
<path d="M6 14.9998C7.65685 14.9998 9 13.6566 9 11.9998C9 10.3429 7.65685 8.99976 6 8.99976C4.34315 8.99976 3 10.3429 3 11.9998C3 13.6566 4.34315 14.9998 6 14.9998Z" stroke="#9810FA" stroke-width="1.5" stroke-linecap="round" stroke-linejoin="round"/>
<path d="M18 21.9998C19.6569 21.9998 21 20.6566 21 18.9998C21 17.3429 19.6569 15.9998 18 15.9998C16.3431 15.9998 15 17.3429 15 18.9998C15 20.6566 16.3431 21.9998 18 21.9998Z" stroke="#9810FA" stroke-width="1.5" stroke-linecap="round" stroke-linejoin="round"/>
<path d="M8.59009 13.51L15.4201 17.49" stroke="#9810FA" stroke-width="1.5" stroke-linecap="round" stroke-linejoin="round"/>
<path d="M15.4101 6.51001L8.59009 10.49" stroke="#9810FA" stroke-width="1.5" stroke-linecap="round" stroke-linejoin="round"/>
</svg>
