<svg width="22" height="22" viewBox="0 0 22 22" fill="none" xmlns="http://www.w3.org/2000/svg">
<path d="M17.9117 5.99492L15.0975 3.18075C14.2358 2.31909 13.0717 1.83325 11.8525 1.83325H7.33333C4.58333 1.83325 2.75 3.66659 2.75 6.41659V15.5833C2.75 18.3333 4.58333 20.1666 7.33333 20.1666H14.6667C17.4167 20.1666 19.25 18.3333 19.25 15.5833V9.23075C19.25 8.01159 18.7642 6.84742 17.9117 5.99492ZM10.5417 16.4999C10.5417 16.753 10.3365 16.9583 10.0833 16.9583H9.16667C7.65417 16.9583 6.41667 15.7208 6.41667 14.2083V13.7499C6.41667 13.4968 6.62187 13.2916 6.875 13.2916H10.3125C10.4408 13.2916 10.5417 13.3924 10.5417 13.5208V16.4999ZM10.5417 12.1458C10.5417 12.2741 10.4408 12.3749 10.3125 12.3749H6.875C6.62187 12.3749 6.41667 12.1697 6.41667 11.9166V11.4583C6.41667 9.94575 7.65417 8.70825 9.16667 8.70825H10.0833C10.3365 8.70825 10.5417 8.91345 10.5417 9.16659V12.1458ZM15.5833 14.2083C15.5833 15.7208 14.3458 16.9583 12.8333 16.9583H11.9167C11.6635 16.9583 11.4583 16.753 11.4583 16.4999V13.5208C11.4583 13.3924 11.5592 13.2916 11.6875 13.2916H15.125C15.3781 13.2916 15.5833 13.4968 15.5833 13.7499V14.2083ZM15.5833 11.9166C15.5833 12.1697 15.3781 12.3749 15.125 12.3749H11.6875C11.5592 12.3749 11.4583 12.2741 11.4583 12.1458V9.16659C11.4583 8.91345 11.6635 8.70825 11.9167 8.70825H12.8333C14.3458 8.70825 15.5833 9.94575 15.5833 11.4583V11.9166Z" fill="white"/>
</svg>
