<svg width="22" height="22" viewBox="0 0 22 22" fill="none" xmlns="http://www.w3.org/2000/svg">
<g filter="url(#filter0_d_163_1698)">
<path d="M4.38726 3.97027L3.02646 4.4651C2.46384 4.6697 2.46384 5.46538 3.02645 5.66997L4.38726 6.16481L4.8821 7.52561C5.08669 8.08823 5.88237 8.08823 6.08696 7.52561L6.5818 6.16481L7.94261 5.66997C8.50523 5.46538 8.50523 4.6697 7.94261 4.4651L6.5818 3.97027L6.08696 2.60946C5.88237 2.04685 5.08669 2.04685 4.8821 2.60946L4.38726 3.97027Z" fill="url(#paint0_linear_163_1698)"/>
<path d="M9.64843 8.42653L12.5803 7.36042L13.6464 4.42859C13.851 3.86597 14.6467 3.86598 14.8513 4.42859L15.9173 7.36042L18.8492 8.42653C19.4118 8.63113 19.4118 9.42682 18.8492 9.63141L15.9173 10.6975L14.8513 13.6294C14.6467 14.192 13.851 14.192 13.6464 13.6294L12.5803 10.6975L9.64843 9.63141C9.08581 9.42682 9.08581 8.63113 9.64843 8.42653Z" fill="url(#paint1_linear_163_1698)"/>
<path d="M3.02647 14.2729L5.19323 13.485L5.98114 11.3182C6.18573 10.7556 6.98142 10.7556 7.18601 11.3182L7.97393 13.485L10.1407 14.2729C10.7033 14.4774 10.7033 15.2732 10.1407 15.4777L7.97393 16.2657L7.18601 18.4325C6.98142 18.995 6.18573 18.995 5.98114 18.4325L5.19323 16.2657L3.02647 15.4777C2.46385 15.2732 2.46385 14.4774 3.02647 14.2729Z" fill="url(#paint2_linear_163_1698)"/>
<path d="M5.93262 11.3008C6.15383 10.6924 7.01414 10.6925 7.23535 11.3008L8.01367 13.4434L10.1582 14.2236C10.7665 14.4448 10.7666 15.3053 10.1582 15.5264L8.01367 16.3057L7.23535 18.4502C7.01415 19.0585 6.15387 19.0584 5.93262 18.4502L5.15234 16.3057L3.00879 15.5264C2.40044 15.3053 2.40046 14.4448 3.00879 14.2236L5.15234 13.4434L5.93262 11.3008ZM13.5977 4.41113C13.8189 3.8028 14.6791 3.80283 14.9004 4.41113L15.957 7.31934L18.8672 8.37793C19.4752 8.59931 19.4754 9.45942 18.8672 9.68066L15.957 10.7373L14.9004 13.6475C14.6791 14.2555 13.819 14.2554 13.5977 13.6475L12.5391 10.7373L9.63086 9.68066C9.02253 9.45945 9.02253 8.59914 9.63086 8.37793L12.5391 7.31934L13.5977 4.41113ZM4.83301 2.5918C5.05422 1.98347 5.91453 1.98347 6.13574 2.5918L6.62207 3.92871L7.95996 4.41602C8.56829 4.63723 8.56829 5.49754 7.95996 5.71875L6.62207 6.20508L6.13574 7.54297C5.91453 8.1513 5.05422 8.1513 4.83301 7.54297L4.3457 6.20508L3.00879 5.71875C2.40046 5.49754 2.40046 4.63723 3.00879 4.41602L4.3457 3.92871L4.83301 2.5918Z" stroke="url(#paint3_linear_163_1698)" stroke-width="0.104167" stroke-linecap="round"/>
</g>
<defs>
<filter id="filter0_d_163_1698" x="0" y="0.00016275" width="21.875" height="21.875" filterUnits="userSpaceOnUse" color-interpolation-filters="sRGB">
<feFlood flood-opacity="0" result="BackgroundImageFix"/>
<feColorMatrix in="SourceAlpha" type="matrix" values="0 0 0 0 0 0 0 0 0 0 0 0 0 0 0 0 0 0 127 0" result="hardAlpha"/>
<feOffset dy="0.416667"/>
<feGaussianBlur stdDeviation="1.25"/>
<feColorMatrix type="matrix" values="0 0 0 0 0 0 0 0 0 0 0 0 0 0 0 0 0 0 0.12 0"/>
<feBlend mode="plus-darker" in2="BackgroundImageFix" result="effect1_dropShadow_163_1698"/>
<feBlend mode="normal" in="SourceGraphic" in2="effect1_dropShadow_163_1698" result="shape"/>
</filter>
<linearGradient id="paint0_linear_163_1698" x1="2.60449" y1="10.5209" x2="19.2712" y2="10.5209" gradientUnits="userSpaceOnUse">
<stop stop-color="#005DFF"/>
<stop offset="1" stop-color="#5F5CA4"/>
</linearGradient>
<linearGradient id="paint1_linear_163_1698" x1="2.60449" y1="10.5209" x2="19.2712" y2="10.5209" gradientUnits="userSpaceOnUse">
<stop stop-color="#005DFF"/>
<stop offset="1" stop-color="#5F5CA4"/>
</linearGradient>
<linearGradient id="paint2_linear_163_1698" x1="2.60449" y1="10.5209" x2="19.2712" y2="10.5209" gradientUnits="userSpaceOnUse">
<stop stop-color="#005DFF"/>
<stop offset="1" stop-color="#5F5CA4"/>
</linearGradient>
<linearGradient id="paint3_linear_163_1698" x1="2.60449" y1="10.5209" x2="19.2712" y2="10.5209" gradientUnits="userSpaceOnUse">
<stop stop-color="#005DFF"/>
<stop offset="1" stop-color="#5F5CA4"/>
</linearGradient>
</defs>
</svg>
