<svg width="20" height="20" viewBox="0 0 20 20" fill="none" xmlns="http://www.w3.org/2000/svg">
<g opacity="0.4">
<path d="M8.95835 14.0498V15.7415C8.95835 17.1748 7.62501 18.3331 5.98335 18.3331C4.34168 18.3331 3 17.1748 3 15.7415V14.0498C3 15.4831 4.33335 16.4998 5.98335 16.4998C7.62501 16.4998 8.95835 15.4748 8.95835 14.0498Z" stroke="url(#paint0_linear_112_8596)" stroke-width="1.25" stroke-linecap="round" stroke-linejoin="round"/>
<path d="M8.95786 11.7581C8.95786 12.1748 8.84118 12.5581 8.64118 12.8914C8.14952 13.6998 7.14117 14.2081 5.97451 14.2081C4.80784 14.2081 3.7995 13.6914 3.30783 12.8914C3.10783 12.5581 2.99121 12.1748 2.99121 11.7581C2.99121 11.0415 3.32453 10.3998 3.85786 9.93312C4.39953 9.45812 5.14117 9.1748 5.96617 9.1748C6.79117 9.1748 7.53286 9.46645 8.07452 9.93312C8.62452 10.3914 8.95786 11.0415 8.95786 11.7581Z" stroke="url(#paint1_linear_112_8596)" stroke-width="1.25" stroke-linecap="round" stroke-linejoin="round"/>
<path d="M8.95835 11.7582V14.0498C8.95835 15.4832 7.62501 16.4998 5.98335 16.4998C4.34168 16.4998 3 15.4748 3 14.0498V11.7582C3 10.3248 4.33335 9.1665 5.98335 9.1665C6.80835 9.1665 7.55004 9.45815 8.09171 9.92481C8.62504 10.3915 8.95835 11.0415 8.95835 11.7582Z" stroke="url(#paint2_linear_112_8596)" stroke-width="1.25" stroke-linecap="round" stroke-linejoin="round"/>
</g>
<path d="M18.3338 9.14196V10.8587C18.3338 11.317 17.9672 11.692 17.5005 11.7086H15.8672C14.9672 11.7086 14.1422 11.0503 14.0672 10.1503C14.0172 9.62531 14.2172 9.13364 14.5672 8.79197C14.8755 8.47531 15.3005 8.29199 15.7672 8.29199H17.5005C17.9672 8.30866 18.3338 8.68362 18.3338 9.14196Z" stroke="url(#paint3_linear_112_8596)" stroke-width="1.25" stroke-linecap="round" stroke-linejoin="round"/>
<path d="M1.66699 8.74984V7.08317C1.66699 4.8165 3.03366 3.23317 5.15866 2.9665C5.37533 2.93317 5.60033 2.9165 5.83366 2.9165H13.3337C13.5503 2.9165 13.7587 2.92483 13.9587 2.95816C16.1087 3.20816 17.5003 4.79984 17.5003 7.08317V8.29151H15.767C15.3003 8.29151 14.8753 8.47483 14.567 8.79149C14.217 9.13316 14.017 9.62483 14.067 10.1498C14.142 11.0498 14.967 11.7082 15.867 11.7082H17.5003V12.9165C17.5003 15.4165 15.8337 17.0832 13.3337 17.0832H11.2503" stroke="url(#paint4_linear_112_8596)" stroke-width="1.25" stroke-linecap="round" stroke-linejoin="round"/>
<defs>
<linearGradient id="paint0_linear_112_8596" x1="3" y1="16.1915" x2="8.95835" y2="16.1915" gradientUnits="userSpaceOnUse">
<stop stop-color="#005DFF"/>
<stop offset="1" stop-color="#5F5CA4"/>
</linearGradient>
<linearGradient id="paint1_linear_112_8596" x1="2.99121" y1="11.6915" x2="8.95786" y2="11.6915" gradientUnits="userSpaceOnUse">
<stop stop-color="#005DFF"/>
<stop offset="1" stop-color="#5F5CA4"/>
</linearGradient>
<linearGradient id="paint2_linear_112_8596" x1="3" y1="12.8332" x2="8.95835" y2="12.8332" gradientUnits="userSpaceOnUse">
<stop stop-color="#005DFF"/>
<stop offset="1" stop-color="#5F5CA4"/>
</linearGradient>
<linearGradient id="paint3_linear_112_8596" x1="14.0596" y1="10.0003" x2="18.3338" y2="10.0003" gradientUnits="userSpaceOnUse">
<stop stop-color="#005DFF"/>
<stop offset="1" stop-color="#5F5CA4"/>
</linearGradient>
<linearGradient id="paint4_linear_112_8596" x1="1.66699" y1="9.99984" x2="17.5003" y2="9.99984" gradientUnits="userSpaceOnUse">
<stop stop-color="#005DFF"/>
<stop offset="1" stop-color="#5F5CA4"/>
</linearGradient>
</defs>
</svg>
