<svg width="145" height="96" viewBox="0 0 145 96" fill="none" xmlns="http://www.w3.org/2000/svg">
<g opacity="0.05">
<path d="M56.3024 0.36833C58.1272 0.226741 60.3668 0.0757129 61.2793 0.0308764C62.1917 -0.01396 64.8579 -0.00924039 67.2041 0.0403157C69.5504 0.0898718 72.8043 0.24326 74.4324 0.377769C76.063 0.512278 79.2624 0.885129 81.5423 1.20606C83.8245 1.527 86.4907 1.95176 87.4671 2.15235C88.4459 2.35057 90.1499 2.72342 91.259 2.97828C92.3682 3.23314 94.1267 3.66499 95.1694 3.93873C96.2122 4.21483 97.9707 4.69623 99.0798 5.01008C100.189 5.3263 101.201 5.64959 101.331 5.72983C101.462 5.81006 102.047 6.00828 102.635 6.17347C103.222 6.3363 104.234 6.65015 104.886 6.86726C105.538 7.08436 107.296 7.73331 108.797 8.30674C110.297 8.88254 111.868 9.50553 112.292 9.69431C112.716 9.8831 113.117 10.0365 113.181 10.0365C113.245 10.0365 114.233 10.4636 115.373 10.9875C116.513 11.509 117.634 12.04 117.862 12.1674C118.089 12.2925 118.464 12.486 118.691 12.5945C118.919 12.7054 119.345 12.9178 119.639 13.0665C119.933 13.2175 120.36 13.437 120.587 13.555C120.815 13.673 121.642 14.0836 122.424 14.4659C123.206 14.8458 124.379 15.4546 125.031 15.8133C125.682 16.1744 126.891 16.854 127.713 17.3236C128.538 17.7932 129.394 18.284 129.617 18.4138C129.839 18.5436 131.084 19.3082 132.385 20.1129C133.683 20.9176 135.788 22.3759 137.058 23.3576C138.328 24.337 140.196 26.0832 141.206 27.2372C142.215 28.3911 143.388 30.0383 143.812 30.8949C144.488 32.2612 144.583 32.6907 144.583 34.3426C144.583 35.8009 144.457 36.5112 144.033 37.4693C143.732 38.1513 143.092 39.107 142.611 39.5931C142.132 40.0793 141.338 40.6645 140.85 40.891C140.21 41.1884 139.364 41.304 137.828 41.304C136.108 41.304 135.477 41.2002 134.57 40.773C133.951 40.4804 133.363 40.2397 133.266 40.2374C133.169 40.235 132.823 40.025 132.496 39.7701C132.171 39.5153 131.771 39.3052 131.607 39.3029C131.444 39.3005 130.325 38.5902 129.119 37.7218C127.913 36.8558 126.5 35.8576 125.979 35.5036C125.457 35.1496 124.391 34.6493 123.609 34.3921C122.827 34.1349 121.014 33.6842 119.58 33.3892C118.146 33.0966 116.546 32.778 116.025 32.6836C115.504 32.5892 114.224 32.3367 113.181 32.1196C112.138 31.9049 110.593 31.5698 109.745 31.381C108.896 31.1899 107.458 30.9326 106.545 30.8099C105.633 30.6872 103.874 30.43 102.635 30.2365C101.395 30.0453 98.7836 29.7669 96.8284 29.6182C94.3708 29.4318 93.2 29.4247 93.0365 29.5946C92.8785 29.7582 92.8888 29.9415 93.0673 30.1445C93.2142 30.312 94.1219 30.6495 95.0817 30.8949C96.0416 31.1379 97.9494 31.7043 99.3168 32.1527C100.684 32.5987 102.125 33.1107 102.516 33.2877C102.907 33.4671 103.76 33.8187 104.412 34.0688C105.064 34.319 106.104 34.7484 106.723 35.0222C107.341 35.2983 108.356 35.7467 108.974 36.0227C109.593 36.2988 110.313 36.6174 110.574 36.7307C110.835 36.844 111.207 37.0351 111.404 37.1578C111.6 37.2782 112.451 37.6959 113.299 38.0876C114.148 38.4793 115.586 39.2109 116.499 39.7135C117.411 40.2161 119.066 41.1884 120.172 41.8751C121.279 42.5594 123.41 44.039 124.905 45.1623C126.398 46.2856 128.664 48.2395 129.941 49.5044C131.849 51.3969 132.427 52.1497 133.212 53.752C134.032 55.4298 134.162 55.9113 134.155 57.2327C134.148 58.1838 133.982 59.1253 133.719 59.7105C133.484 60.2297 132.811 61.1312 132.223 61.7164C131.584 62.3535 130.832 62.8491 130.346 62.9577C129.899 63.0568 129.133 63.137 128.645 63.1346C128.157 63.1346 127.09 62.8656 126.275 62.54C125.46 62.212 124.528 61.9453 124.201 61.9477C123.877 61.9477 122.649 61.7211 121.476 61.4427C120.303 61.1618 117.423 60.3123 115.077 59.5524C112.731 58.7902 110.119 57.9596 109.271 57.7047C108.422 57.4498 106.822 57.0298 105.716 56.7726C104.607 56.513 102.689 56.093 101.45 55.8357C100.21 55.5785 97.6531 55.1561 95.7619 54.8942C93.8707 54.6346 90.138 54.3019 87.4671 54.1579C83.9762 53.9691 81.9926 53.9668 80.4165 54.1485C79.2102 54.2877 78.0916 54.4647 77.9281 54.5449C77.6935 54.6558 77.6958 54.7431 77.9423 54.9579C78.1177 55.1089 79.5231 55.2906 81.1417 55.3709C82.732 55.4487 84.244 55.6234 84.5047 55.7579C84.7654 55.8924 85.7252 56.1897 86.6376 56.4163C87.5501 56.6452 88.4578 56.9142 88.6521 57.018C88.8464 57.1218 89.9129 57.5018 91.022 57.8581C92.1312 58.2168 93.3043 58.6463 93.629 58.8138C93.956 58.9814 94.302 59.1182 94.3992 59.1182C94.4964 59.1206 95.6174 59.635 96.8876 60.2604C98.1579 60.8881 99.7316 61.7046 100.383 62.0727C101.035 62.4409 102.156 63.1134 102.872 63.5665C103.587 64.0196 105.028 65.0248 106.071 65.8012C107.114 66.5752 109.465 68.7085 111.295 70.5397C114.072 73.3172 114.769 74.162 115.508 75.6393C116.276 77.1755 116.392 77.6263 116.392 79.061C116.392 79.9696 116.238 81.0834 116.053 81.5388C115.866 81.9943 115.489 82.6574 115.217 83.0137C114.93 83.3889 114.397 83.724 113.951 83.8042C113.527 83.8845 112.754 83.8868 112.233 83.8137C111.574 83.7193 110.745 83.2662 109.508 82.3223C108.531 81.5789 106.557 79.8704 105.123 78.5253C103.443 76.9513 101.291 75.2688 99.068 73.7963C97.172 72.5385 95.3851 71.3775 95.0983 71.2146C94.8116 71.0518 94.3897 70.8182 94.1622 70.6955C93.9347 70.5728 92.7876 70.0229 91.6145 69.4755C90.4414 68.928 88.6284 68.1681 87.5856 67.7858C86.5428 67.4059 84.6777 66.8395 83.4382 66.5257C82.1987 66.2118 80.0658 65.7989 78.6983 65.6054C77.3309 65.4119 74.9823 65.2538 73.4845 65.2561C71.9867 65.2585 70.1191 65.3812 69.3371 65.5275C68.555 65.6762 66.9553 66.0325 65.7822 66.3204C64.609 66.6083 63.3032 67.0189 62.879 67.2289C62.4548 67.4413 62.0021 67.6159 61.8717 67.6159C61.7414 67.6159 60.701 68.0714 59.5611 68.6283C58.4211 69.1828 56.5465 70.1669 55.3947 70.8111C54.2453 71.4553 53.1243 72.0878 52.9063 72.2199C52.6882 72.3497 51.4985 73.1355 50.259 73.9638C49.0196 74.7921 47.4198 75.9154 46.7041 76.4629C45.9884 77.008 43.9882 78.7991 39.1203 83.4267L37.8761 83.4338C36.9637 83.4385 36.4091 83.2945 35.8024 82.8934C35.345 82.5937 34.7833 81.9801 34.5534 81.5294C34.2264 80.8922 34.1529 80.2976 34.224 78.825C34.2904 77.4658 34.4681 76.6399 34.8568 75.8753C35.153 75.29 36.101 74.0889 36.9613 73.204C37.8239 72.319 38.5942 71.4695 38.6748 71.3161C38.7577 71.1627 41.5874 68.3829 44.9669 65.1381C49.2376 61.0391 51.7592 58.8091 53.2333 57.8274C54.3993 57.051 55.5274 56.3077 55.736 56.1756C55.9469 56.0434 56.5346 55.6941 57.0394 55.3992C57.5466 55.1042 58.3879 54.6016 58.9093 54.2853C59.4307 53.9668 61.3504 52.9473 63.1752 52.0199C65.0001 51.0925 67.8274 49.8041 69.4556 49.1551C71.0837 48.5062 73.7523 47.5693 75.3804 47.0714C77.0086 46.5735 79.5705 45.8962 81.0683 45.5635C82.5661 45.2331 85.064 44.7234 86.6163 44.4308C88.2824 44.1169 89.4721 43.7795 89.5195 43.6048C89.5645 43.4396 89.0313 43.0526 88.2966 42.7199C87.5809 42.3942 86.5665 42.1299 86.0452 42.1299C85.5238 42.1299 84.8033 42.012 84.4454 41.8704C84.0876 41.7264 82.4073 41.4008 80.7128 41.1483C78.8287 40.8651 75.698 40.6362 72.655 40.5536C68.8275 40.4521 66.9387 40.5111 64.4787 40.8084C62.7178 41.0232 60.3739 41.4102 59.2648 41.6698C58.1557 41.9317 56.5038 42.3612 55.5914 42.6255C54.679 42.8874 53.3447 43.3216 52.629 43.5883C51.9132 43.855 50.1524 44.5606 48.7186 45.1552C47.2848 45.7499 43.7132 47.4324 40.7793 48.8955C37.8476 50.3563 34.9137 51.8571 34.2619 52.2276C33.6102 52.5981 31.8232 53.7166 30.2923 54.7125C28.7613 55.7107 26.8416 57.0864 26.0264 57.7755C25.2111 58.4622 23.7891 59.6563 22.8672 60.4303C21.6183 61.4757 20.8623 61.917 19.9048 62.16C19.1772 62.3465 18.0539 62.4361 17.3168 62.3724C16.5987 62.3087 15.6934 62.0774 15.3024 61.858C14.9113 61.6409 14.2241 60.907 13.7738 60.2321C13.0012 59.0734 12.9538 58.887 12.9514 56.9968C12.949 55.2741 13.0415 54.8163 13.5937 53.752C13.9468 53.07 14.8521 51.9019 15.6081 51.1562C16.3617 50.4105 17.5609 49.3179 18.2743 48.728C18.9853 48.138 20.2082 47.1681 20.9902 46.5735C21.7723 45.9788 23.1587 44.78 24.0712 43.9092C24.9836 43.0385 26.2539 41.8845 26.8914 41.3418C27.5313 40.8014 29.2376 39.4704 30.6833 38.3826C32.1313 37.297 34.2193 35.8104 35.3284 35.0812C36.4375 34.3544 37.504 33.6747 37.6983 33.5733C37.8927 33.4694 38.907 32.8677 39.9498 32.2305C40.9926 31.5957 43.872 30.0713 46.3486 28.8418C48.8252 27.6124 51.9725 26.1564 53.34 25.6042C54.7074 25.0543 56.1744 24.4573 56.5986 24.2803C57.0228 24.1033 57.4755 23.9594 57.6059 23.9594C57.7362 23.9594 58.0301 23.8532 58.2576 23.7258C58.4851 23.596 59.1511 23.3246 59.7388 23.1216C60.3265 22.9163 61.1774 22.6473 61.6348 22.5199C62.0921 22.3925 62.8363 22.1423 63.2937 21.9653C63.7511 21.7907 64.8697 21.4108 65.7822 21.1252C66.6946 20.8397 69.0953 20.1837 71.1145 19.6692C73.1337 19.1548 75.3212 18.6356 75.9729 18.5153C76.6246 18.3973 78.1082 18.1141 79.2719 17.8852C80.4331 17.6563 81.4238 17.3637 81.4712 17.2339C81.5186 17.1041 81.3148 16.8799 81.0161 16.736C80.7199 16.592 79.6748 16.3065 78.6983 16.0988C77.7219 15.8935 75.3757 15.549 73.4845 15.3343C71.5932 15.1219 67.8084 14.8906 65.0712 14.8222C62.168 14.749 58.8596 14.8104 57.1319 14.9661C55.5037 15.1124 53.3163 15.3461 52.2735 15.4853C51.2307 15.6269 49.3111 15.9455 48.0076 16.1956C46.7041 16.4481 44.7845 16.8681 43.7417 17.1348C42.6989 17.3991 41.4737 17.7248 41.0163 17.8569C40.5589 17.9867 39.4924 18.2911 38.6463 18.5295C37.8002 18.7678 36.0915 19.3318 34.8544 19.7825C33.6173 20.2309 32.0176 20.8303 31.2995 21.1111C30.5814 21.3919 29.6761 21.7671 29.285 21.9441C28.894 22.1211 27.8536 22.5931 26.9743 22.9942C26.0951 23.3954 25.3225 23.7234 25.2561 23.7234C25.1898 23.7234 24.0972 24.2119 22.8269 24.8089C21.5567 25.4059 19.9309 26.1587 19.2128 26.4797C18.4947 26.803 17.3595 27.3481 16.6888 27.695C16.0181 28.0419 14.3117 28.9457 12.8969 29.7032C11.482 30.4607 10.1667 31.2064 9.97001 31.3574C9.77331 31.5108 9.24007 31.8364 8.78504 32.0866C8.33001 32.3344 6.78244 33.3137 5.34862 34.26C3.91481 35.2063 1.88851 36.6741 0.845734 37.5236C-0.197041 38.3708 -1.73987 39.4091 -2.58594 39.8291C-3.9771 40.5253 -4.32074 40.5961 -6.25935 40.5961C-8.16953 40.5961 -8.54398 40.5205 -9.78346 39.8881C-10.5442 39.4987 -11.4448 38.8097 -11.7837 38.3542C-12.1226 37.8988 -12.5492 37.1578 -12.734 36.7024C-12.9544 36.1596 -13.0398 35.27 -12.9829 34.1066C-12.9142 32.7166 -12.734 32.0063 -12.1487 30.8028C-11.7031 29.8943 -10.8357 28.7002 -10.0157 27.8743C-9.25733 27.1074 -7.35427 25.5405 -5.7901 24.3936C-4.22594 23.2467 -2.51958 21.9984 -1.9982 21.6208C-1.47681 21.2409 -0.0358849 20.2852 1.20123 19.4946C2.43833 18.7041 4.30348 17.5548 5.34625 16.9389C6.38666 16.323 7.41521 15.7118 7.63325 15.582C7.84891 15.4523 9.12868 14.716 10.4795 13.9443C11.828 13.1727 14.5061 11.7662 16.4281 10.8176C18.3501 9.86894 19.9759 9.09256 20.0423 9.09256C20.1086 9.09256 20.5068 8.93917 20.931 8.75039C21.3552 8.5616 22.9289 7.93861 24.4267 7.36282C25.9245 6.78938 28.0574 6.04604 29.1665 5.71567C30.2757 5.38529 32.5129 4.7505 34.1434 4.3045C35.7716 3.86085 38.1723 3.26146 39.4758 2.97592C40.7793 2.69039 42.5401 2.30338 43.3862 2.11695C44.2323 1.92817 45.6732 1.66859 46.5856 1.53644C47.498 1.40665 49.3111 1.14943 50.6145 0.963003C51.918 0.776577 54.4775 0.509919 56.3024 0.36833Z" fill="url(#paint0_linear_1_1099)"/>
<path d="M66.9079 72.6588C67.5264 72.3521 68.5929 71.9462 69.2778 71.7621C69.9627 71.5757 71.4274 71.4129 72.5365 71.4034C74.0888 71.3869 74.9041 71.5096 76.0914 71.9367C76.9375 72.2388 78.0584 72.7556 78.5798 73.0813C79.1012 73.4069 80.0966 74.247 80.791 74.9502C81.4854 75.6535 82.3007 76.654 82.604 77.1732C82.9074 77.6923 83.4003 78.8062 83.6965 79.651C84.1208 80.8545 84.2369 81.6922 84.2369 83.5447C84.2369 85.4656 84.1397 86.1239 83.7131 87.0844C83.424 87.7333 83.1917 88.3445 83.1965 88.4413C83.1989 88.538 82.7865 89.1752 82.2793 89.8572C81.7721 90.5392 80.945 91.4736 80.4426 91.9362C79.9402 92.3987 79.1557 93.0453 78.6983 93.3756C78.2409 93.7037 77.229 94.2181 76.4469 94.5201C75.2619 94.9756 74.5699 95.0676 72.2995 95.0723C69.9841 95.0771 69.3608 94.9945 68.1521 94.5225C67.37 94.2157 66.204 93.5857 65.5641 93.1208C64.9219 92.6559 63.9217 91.6907 63.3435 90.9781C62.7652 90.2631 62.1301 89.3616 61.931 88.9722C61.7319 88.5829 61.3575 87.6271 61.0944 86.8484C60.7579 85.8408 60.618 84.7859 60.6133 83.1907C60.6062 81.4798 60.7294 80.5855 61.13 79.415C61.4191 78.5702 61.9974 77.3596 62.4168 76.7224C62.8339 76.0853 63.763 75.0352 64.4787 74.3909C65.1944 73.7467 66.2893 72.968 66.9079 72.6588Z" fill="url(#paint1_linear_1_1099)"/>
</g>
<defs>
<linearGradient id="paint0_linear_1_1099" x1="65.7914" y1="0" x2="65.7914" y2="95.0725" gradientUnits="userSpaceOnUse">
<stop stop-color="#4A81AB"/>
<stop offset="1" stop-color="#1E3445"/>
</linearGradient>
<linearGradient id="paint1_linear_1_1099" x1="65.7914" y1="0" x2="65.7914" y2="95.0725" gradientUnits="userSpaceOnUse">
<stop stop-color="#4A81AB"/>
<stop offset="1" stop-color="#1E3445"/>
</linearGradient>
</defs>
</svg>
