<svg width="264" height="125" viewBox="0 0 264 125" fill="none" xmlns="http://www.w3.org/2000/svg">
<g opacity="0.05">
<path d="M116.103 0.612123C119.16 0.376818 122.912 0.125826 124.441 0.0513132C125.969 -0.0232 130.436 -0.0153565 134.367 0.0670002C138.297 0.149357 143.749 0.40427 146.476 0.62781C149.208 0.85135 154.568 1.47099 158.388 2.00434C162.211 2.5377 166.678 3.24362 168.314 3.57696C169.953 3.90639 172.808 4.52603 174.666 4.94958C176.524 5.37312 179.47 6.0908 181.217 6.54573C182.964 7.00457 185.91 7.80461 187.769 8.3262C189.627 8.85171 191.322 9.38899 191.54 9.52233C191.759 9.65567 192.739 9.9851 193.724 10.2596C194.709 10.5302 196.404 11.0518 197.496 11.4126C198.588 11.7734 201.534 12.8519 204.047 13.8049C206.56 14.7618 209.193 15.7971 209.903 16.1109C210.614 16.4246 211.285 16.6795 211.392 16.6795C211.5 16.6795 213.155 17.3894 215.065 18.26C216.975 19.1267 218.853 20.0091 219.234 20.2209C219.615 20.4287 220.242 20.7503 220.624 20.9307C221.005 21.115 221.719 21.468 222.212 21.715C222.704 21.966 223.419 22.3308 223.8 22.5268C224.181 22.7229 225.567 23.4053 226.877 24.0406C228.187 24.672 230.152 25.6839 231.244 26.28C232.336 26.88 234.361 28.0095 235.739 28.7899C237.12 29.5703 238.554 30.386 238.927 30.6017C239.3 30.8174 241.385 32.0881 243.564 33.4254C245.74 34.7627 249.266 37.1863 251.394 38.8178C253.522 40.4453 256.651 43.3474 258.342 45.2651C260.034 47.1829 261.999 49.9203 262.71 51.3438C263.841 53.6145 264 54.3283 264 57.0735C264 59.4972 263.79 60.6776 263.079 62.2698C262.575 63.4032 261.503 64.9915 260.697 65.7994C259.895 66.6073 258.565 67.5799 257.747 67.9564C256.675 68.4505 255.257 68.6427 252.684 68.6427C249.802 68.6427 248.746 68.4701 247.225 67.7603C246.189 67.274 245.204 66.874 245.041 66.87C244.879 66.8661 244.299 66.5171 243.751 66.0935C243.207 65.67 242.536 65.321 242.262 65.317C241.988 65.3131 240.114 64.1327 238.093 62.6895C236.072 61.2502 233.706 59.5913 232.832 59.003C231.959 58.4148 230.172 57.5834 228.862 57.1559C227.552 56.7284 224.514 55.9794 222.112 55.4891C219.71 55.0028 217.03 54.4734 216.157 54.3165C215.283 54.1597 213.139 53.74 211.392 53.3792C209.645 53.0224 207.057 52.4655 205.635 52.1517C204.214 51.8341 201.804 51.4066 200.275 51.2027C198.747 50.9987 195.801 50.5713 193.724 50.2497C191.648 49.932 187.272 49.4693 183.997 49.2222C179.879 48.9124 177.918 48.9006 177.644 49.183C177.379 49.4549 177.397 49.7595 177.696 50.0967C177.942 50.3752 179.462 50.936 181.07 51.3438C182.678 51.7478 185.875 52.689 188.166 53.4341C190.456 54.1754 192.87 55.0264 193.526 55.3205C194.181 55.6186 195.61 56.2029 196.702 56.6186C197.794 57.0343 199.537 57.7481 200.573 58.203C201.609 58.6618 203.309 59.407 204.345 59.8658C205.381 60.3247 206.588 60.8541 207.025 61.0423C207.462 61.2306 208.085 61.5482 208.415 61.7522C208.744 61.9522 210.169 62.6463 211.591 63.2973C213.012 63.9483 215.422 65.1641 216.951 65.9994C218.479 66.8348 221.251 68.4505 223.105 69.5917C224.959 70.729 228.529 73.188 231.034 75.0547C233.535 76.9215 237.331 80.1687 239.471 82.2707C242.667 85.416 243.636 86.667 244.95 89.3299C246.324 92.1183 246.542 92.9183 246.53 95.1145C246.518 96.6949 246.24 98.2597 245.8 99.2323C245.407 100.095 244.279 101.593 243.294 102.566C242.222 103.625 240.964 104.448 240.15 104.629C239.399 104.793 238.117 104.927 237.299 104.923C236.481 104.923 234.695 104.476 233.329 103.934C231.963 103.389 230.403 102.946 229.855 102.95C229.311 102.95 227.254 102.574 225.289 102.111C223.323 101.644 218.499 100.232 214.569 98.9696C210.638 97.7028 206.263 96.3224 204.841 95.8988C203.42 95.4753 200.74 94.7772 198.886 94.3497C197.027 93.9183 193.815 93.2203 191.739 92.7928C189.662 92.3653 185.378 91.6633 182.21 91.228C179.042 90.7966 172.788 90.2437 168.314 90.0044C162.465 89.6907 159.142 89.6868 156.502 89.9887C154.481 90.2201 152.607 90.5143 152.333 90.6476C151.94 90.8319 151.944 90.977 152.357 91.3339C152.65 91.5849 155.005 91.8869 157.717 92.0202C160.381 92.1496 162.914 92.4398 163.351 92.6634C163.787 92.8869 165.395 93.3811 166.924 93.7576C168.453 94.138 169.973 94.585 170.299 94.7576C170.624 94.9302 172.411 95.5616 174.269 96.1537C176.127 96.7498 178.093 97.4636 178.637 97.7421C179.185 98.0205 179.764 98.2479 179.927 98.2479C180.09 98.2519 181.968 99.1068 184.096 100.146C186.224 101.189 188.86 102.546 189.952 103.158C191.044 103.77 192.922 104.887 194.121 105.64C195.32 106.393 197.734 108.064 199.481 109.354C201.228 110.641 205.167 114.186 208.232 117.229C212.885 121.845 214.053 123.249 215.291 125.704C216.578 128.257 216.772 129.006 216.772 131.391C216.772 132.901 216.514 134.752 216.204 135.508C215.891 136.265 215.26 137.367 214.803 137.96C214.323 138.583 213.429 139.14 212.683 139.273C211.972 139.407 210.678 139.411 209.804 139.289C208.7 139.132 207.311 138.379 205.238 136.81C203.602 135.575 200.295 132.736 197.893 130.5C195.078 127.885 191.473 125.088 187.749 122.641C184.572 120.551 181.579 118.621 181.098 118.351C180.618 118.08 179.911 117.692 179.53 117.488C179.149 117.284 177.227 116.37 175.262 115.46C173.296 114.551 170.259 113.288 168.512 112.653C166.765 112.021 163.64 111.08 161.564 110.558C159.487 110.037 155.914 109.35 153.623 109.029C151.332 108.707 147.398 108.444 144.888 108.448C142.379 108.452 139.25 108.656 137.94 108.899C136.63 109.146 133.95 109.739 131.985 110.217C130.019 110.696 127.832 111.378 127.121 111.727C126.41 112.08 125.652 112.37 125.433 112.37C125.215 112.37 123.472 113.127 121.562 114.053C119.653 114.974 116.512 116.61 114.582 117.68C112.657 118.751 110.779 119.802 110.413 120.021C110.048 120.237 108.055 121.543 105.979 122.92C103.902 124.296 101.222 126.163 100.023 127.073C98.8239 127.979 95.4729 130.955 87.3177 138.646L85.2332 138.658C83.7046 138.665 82.7756 138.426 81.7591 137.76C80.9929 137.261 80.0519 136.242 79.6667 135.493C79.1188 134.434 78.9958 133.446 79.1149 130.998C79.226 128.74 79.5238 127.367 80.175 126.096C80.6712 125.124 82.2594 123.128 83.7007 121.657C85.1459 120.186 86.4363 118.774 86.5713 118.519C86.7102 118.265 91.4509 113.645 97.1126 108.252C104.267 101.44 108.492 97.7342 110.961 96.1028C112.915 94.8125 114.805 93.5771 115.154 93.3575C115.507 93.1379 116.492 92.5575 117.338 92.0673C118.187 91.5771 119.597 90.7417 120.47 90.2162C121.344 89.6868 124.56 87.9926 127.617 86.4513C130.674 84.9101 135.411 82.7688 138.139 81.6903C140.866 80.6118 145.337 79.0549 148.065 78.2274C150.792 77.3999 155.084 76.2744 157.594 75.7214C160.103 75.1724 164.288 74.3253 166.888 73.839C169.679 73.3174 171.673 72.7566 171.752 72.4664C171.827 72.1919 170.934 71.5487 169.703 70.9957C168.504 70.4545 166.805 70.0153 165.931 70.0153C165.058 70.0153 163.851 69.8192 163.251 69.5839C162.652 69.3447 159.837 68.8035 156.998 68.3838C153.842 67.9132 148.597 67.5328 143.499 67.3956C137.087 67.2269 133.922 67.325 129.801 67.8191C126.851 68.176 122.924 68.8192 121.066 69.2505C119.208 69.6859 116.44 70.3996 114.912 70.8389C113.383 71.2742 111.148 71.9958 109.949 72.4389C108.75 72.8821 105.8 74.0547 103.398 75.043C100.996 76.0312 95.0123 78.8275 90.097 81.2589C85.1856 83.6865 80.2702 86.1807 79.1784 86.7964C78.0865 87.4122 75.0929 89.2711 72.528 90.926C69.9631 92.5849 66.7471 94.8713 65.3813 96.0165C64.0155 97.1577 61.6332 99.1421 60.0888 100.428C57.9964 102.166 56.7298 102.899 55.1258 103.303C53.9069 103.613 52.0249 103.762 50.7901 103.656C49.5871 103.55 48.0704 103.166 47.4153 102.801C46.7602 102.44 45.6087 101.221 44.8544 100.099C43.56 98.1734 43.4806 97.8636 43.4767 94.7223C43.4727 91.8594 43.6275 91.0986 44.5526 89.3299C45.1442 88.1965 46.6609 86.2552 47.9275 85.016C49.19 83.7767 51.1991 81.9609 52.3941 80.9805C53.5853 80.0001 55.634 78.3882 56.9442 77.3999C58.2544 76.4117 60.5771 74.4194 62.1057 72.9723C63.6343 71.5252 65.7624 69.6074 66.8305 68.7054C67.9025 67.8073 70.7612 65.5955 73.1831 63.7876C75.609 61.9836 79.1069 59.5128 80.9651 58.301C82.8232 57.0931 84.6099 55.9637 84.9355 55.795C85.261 55.6225 86.9604 54.6224 88.7073 53.5636C90.4543 52.5086 95.2783 49.9752 99.4274 47.9319C103.576 45.8887 108.849 43.469 111.14 42.5513C113.431 41.6375 115.889 40.6453 116.599 40.3512C117.31 40.0571 118.068 39.8178 118.287 39.8178C118.505 39.8178 118.997 39.6414 119.379 39.4296C119.76 39.2139 120.875 38.7629 121.86 38.4256C122.845 38.0844 124.27 37.6373 125.036 37.4256C125.803 37.2138 127.049 36.7981 127.816 36.504C128.582 36.2137 130.456 35.5823 131.985 35.1078C133.513 34.6333 137.535 33.543 140.918 32.6881C144.301 31.8332 147.965 30.9704 149.057 30.7704C150.149 30.5743 152.635 30.1037 154.584 29.7233C156.53 29.3428 158.189 28.8566 158.269 28.6409C158.348 28.4252 158.007 28.0526 157.506 27.8134C157.01 27.5741 155.259 27.0996 153.623 26.7545C151.987 26.4133 148.057 25.8407 144.888 25.4838C141.72 25.1309 135.379 24.7466 130.793 24.6328C125.93 24.5113 120.387 24.6132 117.493 24.8721C114.765 25.1152 111.1 25.5035 109.353 25.7348C107.606 25.9701 104.39 26.4996 102.207 26.9153C100.023 27.3349 96.8069 28.033 95.0599 28.4761C93.313 28.9154 91.2603 29.4566 90.494 29.6762C89.7277 29.8919 87.941 30.3978 86.5236 30.7939C85.1062 31.19 82.2435 32.1273 80.171 32.8763C78.0984 33.6215 75.4184 34.6176 74.2154 35.0843C73.0124 35.551 71.4957 36.1745 70.8406 36.4687C70.1855 36.7628 68.4425 37.5471 66.9694 38.2138C65.4964 38.8805 64.2021 39.4257 64.0909 39.4257C63.9797 39.4257 62.1494 40.2375 60.0213 41.2297C57.8931 42.2219 55.1694 43.4729 53.9664 44.0063C52.7634 44.5435 50.8616 45.4495 49.738 46.026C48.6143 46.6025 45.7557 48.1045 43.3853 49.3634C41.015 50.6222 38.8114 51.8615 38.4819 52.1125C38.1524 52.3674 37.259 52.9086 36.4967 53.3243C35.7344 53.7361 33.1417 55.3636 30.7396 56.9363C28.3376 58.5089 24.9429 60.9482 23.1959 62.36C21.4489 63.7679 18.8642 65.4935 17.4468 66.1916C15.1162 67.3485 14.5405 67.4661 11.2927 67.4661C8.09254 67.4661 7.46522 67.3407 5.38871 66.2896C4.11421 65.6425 2.60547 64.4974 2.0377 63.7405C1.46993 62.9836 0.755264 61.7522 0.445574 60.9953C0.0763275 60.0933 -0.0666065 58.6148 0.0286828 56.6813C0.143824 54.3714 0.445574 53.191 1.42626 51.1909C2.17269 49.681 3.62586 47.6966 4.99961 46.324C6.27013 45.0494 9.45836 42.4454 12.0788 40.5394C14.6993 38.6335 17.558 36.5589 18.4314 35.9314C19.3049 35.3 21.7189 33.7117 23.7915 32.3979C25.864 31.0841 28.9887 29.1742 30.7357 28.1506C32.4787 27.1271 34.2018 26.1113 34.5671 25.8956C34.9284 25.6799 37.0724 24.4563 39.3355 23.1739C41.5947 21.8915 46.0812 19.5542 49.3012 17.9776C52.5212 16.4011 55.2449 15.1108 55.3561 15.1108C55.4672 15.1108 56.1343 14.8559 56.845 14.5422C57.5556 14.2284 60.192 13.1931 62.7013 12.2362C65.2106 11.2832 68.7839 10.0478 70.6421 9.4988C72.5002 8.94976 76.2482 7.89481 78.9799 7.1536C81.7075 6.41631 85.7295 5.42019 87.9132 4.94565C90.097 4.47112 93.047 3.82796 94.4644 3.51814C95.8818 3.2044 98.2958 2.77301 99.8244 2.55339C101.353 2.33769 104.39 1.91022 106.574 1.6004C108.758 1.29059 113.046 0.847428 116.103 0.612123Z" fill="url(#paint0_linear_1_837)"/>
<path d="M133.87 120.751C134.907 120.241 136.693 119.567 137.841 119.261C138.988 118.951 141.442 118.68 143.3 118.665C145.901 118.637 147.267 118.841 149.256 119.551C150.673 120.053 152.551 120.912 153.425 121.453C154.298 121.994 155.966 123.39 157.129 124.559C158.292 125.728 159.658 127.39 160.166 128.253C160.675 129.116 161.5 130.967 161.997 132.371C162.707 134.371 162.902 135.763 162.902 138.842C162.902 142.034 162.739 143.128 162.025 144.725C161.54 145.803 161.151 146.819 161.159 146.98C161.163 147.14 160.472 148.199 159.622 149.333C158.773 150.466 157.387 152.019 156.545 152.788C155.704 153.556 154.389 154.631 153.623 155.18C152.857 155.725 151.162 156.58 149.851 157.082C147.866 157.839 146.707 157.992 142.903 158C139.024 158.008 137.98 157.87 135.955 157.086C134.645 156.576 132.691 155.529 131.619 154.756C130.543 153.984 128.868 152.38 127.899 151.195C126.93 150.007 125.866 148.509 125.533 147.862C125.199 147.215 124.572 145.627 124.131 144.332C123.567 142.658 123.333 140.905 123.325 138.254C123.313 135.41 123.52 133.924 124.191 131.979C124.675 130.575 125.644 128.563 126.347 127.504C127.045 126.445 128.602 124.7 129.801 123.63C131 122.559 132.834 121.265 133.87 120.751Z" fill="url(#paint1_linear_1_837)"/>
</g>
<defs>
<linearGradient id="paint0_linear_1_837" x1="132" y1="0" x2="132" y2="158" gradientUnits="userSpaceOnUse">
<stop stop-color="#4A81AB"/>
<stop offset="1" stop-color="#1E3445"/>
</linearGradient>
<linearGradient id="paint1_linear_1_837" x1="132" y1="0" x2="132" y2="158" gradientUnits="userSpaceOnUse">
<stop stop-color="#4A81AB"/>
<stop offset="1" stop-color="#1E3445"/>
</linearGradient>
</defs>
</svg>
